<?xml version="1.0" standalone="no"?>
<!DOCTYPE svg PUBLIC "-//W3C//DTD SVG 20010904//EN"
 "http://www.w3.org/TR/2001/REC-SVG-20010904/DTD/svg10.dtd">
<svg version="1.0" xmlns="http://www.w3.org/2000/svg"
 width="660.000000pt" height="660.000000pt" viewBox="0 0 660.000000 660.000000"
 preserveAspectRatio="xMidYMid meet">
<metadata>
Created by potrace 1.11, written by Peter Selinger 2001-2013
</metadata>
<g transform="translate(0.000000,660.000000) scale(0.100000,-0.100000)"
fill="#000000" stroke="none">
<path d="M800 5100 l0 -700 700 0 700 0 0 700 0 700 -700 0 -700 0 0 -700z
m1200 0 l0 -500 -500 0 -500 0 0 500 0 500 500 0 500 0 0 -500z"/>
<path d="M1200 5100 l0 -300 300 0 300 0 0 300 0 300 -300 0 -300 0 0 -300z"/>
<path d="M2600 5700 l0 -100 -100 0 -100 0 0 -200 0 -200 100 0 100 0 0 -100
0 -100 -100 0 -100 0 0 -400 0 -400 -200 0 -200 0 0 -100 0 -100 100 0 100 0
0 -100 0 -100 -100 0 -100 0 0 -100 0 -100 -100 0 -100 0 0 -300 0 -300 -100
0 -100 0 0 400 0 400 100 0 100 0 0 100 0 100 -100 0 -100 0 0 100 0 100 -100
0 -100 0 0 -100 0 -100 -100 0 -100 0 0 100 0 100 -200 0 -200 0 0 -300 0
-300 100 0 100 0 0 -100 0 -100 -100 0 -100 0 0 -100 0 -100 100 0 100 0 0
100 0 100 100 0 100 0 0 200 0 200 100 0 100 0 0 -300 0 -300 -100 0 -100 0 0
-200 0 -200 -100 0 -100 0 0 100 0 100 -100 0 -100 0 0 -100 0 -100 100 0 100
0 0 -100 0 -100 -100 0 -100 0 0 -100 0 -100 200 0 200 0 0 200 0 200 100 0
100 0 0 -200 0 -200 500 0 500 0 0 -200 0 -200 100 0 100 0 0 300 0 300 200 0
200 0 0 -100 0 -100 -100 0 -100 0 0 -200 0 -200 100 0 100 0 0 -100 0 -100
100 0 100 0 0 -200 0 -200 100 0 100 0 0 100 0 100 200 0 200 0 0 -200 0 -200
100 0 100 0 0 -200 0 -200 400 0 400 0 0 100 0 100 -300 0 -300 0 0 100 0 100
-100 0 -100 0 0 200 0 200 300 0 300 0 0 -200 0 -200 200 0 200 0 0 -100 0
-100 100 0 100 0 0 100 0 100 100 0 100 0 0 200 0 200 100 0 100 0 0 100 0
100 100 0 100 0 0 300 0 300 -100 0 -100 0 0 -100 0 -100 -100 0 -100 0 0
-100 0 -100 -100 0 -100 0 0 200 0 200 100 0 100 0 0 100 0 100 100 0 100 0 0
100 0 100 100 0 100 0 0 300 0 300 -200 0 -200 0 0 -100 0 -100 -100 0 -100 0
0 100 0 100 -100 0 -100 0 0 100 0 100 -100 0 -100 0 0 100 0 100 -100 0 -100
0 0 100 0 100 200 0 200 0 0 100 0 100 -300 0 -300 0 0 -100 0 -100 -100 0
-100 0 0 600 0 600 -300 0 -300 0 0 -100 0 -100 -100 0 -100 0 0 -200 0 -200
-100 0 -100 0 0 100 0 100 -100 0 -100 0 0 -100 0 -100 -100 0 -100 0 0 100 0
100 -100 0 -100 0 0 100 0 100 300 0 300 0 0 100 0 100 100 0 100 0 0 200 0
200 200 0 200 0 0 -100 0 -100 200 0 200 0 0 100 0 100 -100 0 -100 0 0 100 0
100 -400 0 -400 0 0 -100 0 -100 -100 0 -100 0 0 -100 0 -100 -200 0 -200 0 0
100 0 100 100 0 100 0 0 100 0 100 -100 0 -100 0 0 -100z m1200 -900 l0 -200
100 0 100 0 0 -100 0 -100 -100 0 -100 0 0 100 0 100 -100 0 -100 0 0 -200 0
-200 -100 0 -100 0 0 200 0 200 100 0 100 0 0 200 0 200 100 0 100 0 0 -200z
m-1000 -300 l0 -100 100 0 100 0 0 100 0 100 100 0 100 0 0 -300 0 -300 100 0
100 0 0 -100 0 -100 100 0 100 0 0 100 0 100 200 0 200 0 0 -400 0 -400 100 0
100 0 0 100 0 100 100 0 100 0 0 200 0 200 100 0 100 0 0 -200 0 -200 -100 0
-100 0 0 -200 0 -200 -200 0 -200 0 0 -200 0 -200 -100 0 -100 0 0 -100 0
-100 -100 0 -100 0 0 -300 0 -300 -100 0 -100 0 0 100 0 100 -200 0 -200 0 0
100 0 100 100 0 100 0 0 100 0 100 100 0 100 0 0 100 0 100 100 0 100 0 0 100
0 100 100 0 100 0 0 100 0 100 -100 0 -100 0 0 100 0 100 100 0 100 0 0 300 0
300 -100 0 -100 0 0 -100 0 -100 -100 0 -100 0 0 -400 0 -400 -100 0 -100 0 0
-100 0 -100 -100 0 -100 0 0 100 0 100 100 0 100 0 0 100 0 100 -100 0 -100 0
0 100 0 100 -100 0 -100 0 0 -100 0 -100 -100 0 -100 0 0 -200 0 -200 -300 0
-300 0 0 100 0 100 100 0 100 0 0 100 0 100 -100 0 -100 0 0 100 0 100 100 0
100 0 0 -100 0 -100 200 0 200 0 0 300 0 300 -100 0 -100 0 0 -100 0 -100
-200 0 -200 0 0 100 0 100 100 0 100 0 0 100 0 100 200 0 200 0 0 100 0 100
-100 0 -100 0 0 100 0 100 200 0 200 0 0 100 0 100 -100 0 -100 0 0 100 0 100
100 0 100 0 0 -100z m-1600 -600 l0 -100 -100 0 -100 0 0 100 0 100 100 0 100
0 0 -100z m400 0 l0 -100 -100 0 -100 0 0 100 0 100 100 0 100 0 0 -100z
m3400 -700 l0 -200 100 0 100 0 0 -100 0 -100 100 0 100 0 0 200 0 200 100 0
100 0 0 -200 0 -200 -100 0 -100 0 0 -100 0 -100 -200 0 -200 0 0 200 0 200
-200 0 -200 0 0 100 0 100 100 0 100 0 0 100 0 100 100 0 100 0 0 -200z
m-3400 -300 l0 -100 100 0 100 0 0 -100 0 -100 -100 0 -100 0 0 100 0 100
-100 0 -100 0 0 100 0 100 100 0 100 0 0 -100z m3200 -200 l0 -100 -100 0
-100 0 0 100 0 100 100 0 100 0 0 -100z m0 -600 l0 -300 -300 0 -300 0 0 300
0 300 300 0 300 0 0 -300z m800 -200 l0 -100 -100 0 -100 0 0 -100 0 -100
-100 0 -100 0 0 100 0 100 100 0 100 0 0 100 0 100 100 0 100 0 0 -100z
m-1600 -200 l0 -100 -100 0 -100 0 0 100 0 100 100 0 100 0 0 -100z m1200
-400 l0 -100 -100 0 -100 0 0 100 0 100 100 0 100 0 0 -100z"/>
<path d="M2800 4000 l0 -200 -100 0 -100 0 0 -100 0 -100 200 0 200 0 0 -100
0 -100 100 0 100 0 0 100 0 100 100 0 100 0 0 100 0 100 -100 0 -100 0 0 100
0 100 -100 0 -100 0 0 100 0 100 -100 0 -100 0 0 -200z m400 -300 l0 -100
-100 0 -100 0 0 100 0 100 100 0 100 0 0 -100z"/>
<path d="M4400 2100 l0 -100 100 0 100 0 0 100 0 100 -100 0 -100 0 0 -100z"/>
<path d="M4400 5100 l0 -700 700 0 700 0 0 700 0 700 -700 0 -700 0 0 -700z
m1200 0 l0 -500 -500 0 -500 0 0 500 0 500 500 0 500 0 0 -500z"/>
<path d="M4800 5100 l0 -300 300 0 300 0 0 300 0 300 -300 0 -300 0 0 -300z"/>
<path d="M5200 4100 l0 -100 200 0 200 0 0 -100 0 -100 -100 0 -100 0 0 -100
0 -100 200 0 200 0 0 200 0 200 -100 0 -100 0 0 100 0 100 -200 0 -200 0 0
-100z"/>
<path d="M800 1500 l0 -700 700 0 700 0 0 700 0 700 -700 0 -700 0 0 -700z
m1200 0 l0 -500 -500 0 -500 0 0 500 0 500 500 0 500 0 0 -500z"/>
<path d="M1200 1500 l0 -300 300 0 300 0 0 300 0 300 -300 0 -300 0 0 -300z"/>
<path d="M2400 1500 l0 -100 200 0 200 0 0 -200 0 -200 100 0 100 0 0 -100 0
-100 400 0 400 0 0 100 0 100 -100 0 -100 0 0 100 0 100 -300 0 -300 0 0 200
0 200 -300 0 -300 0 0 -100z"/>
<path d="M5600 1300 l0 -100 100 0 100 0 0 100 0 100 -100 0 -100 0 0 -100z"/>
<path d="M2400 1000 l0 -200 100 0 100 0 0 200 0 200 -100 0 -100 0 0 -200z"/>
<path d="M5400 900 l0 -100 200 0 200 0 0 100 0 100 -200 0 -200 0 0 -100z"/>
</g>
</svg>
