<?xml version="1.0" encoding="UTF-8" standalone="no"?>
<svg
   xmlns:dc="http://purl.org/dc/elements/1.1/"
   xmlns:cc="http://creativecommons.org/ns#"
   xmlns:rdf="http://www.w3.org/1999/02/22-rdf-syntax-ns#"
   xmlns:svg="http://www.w3.org/2000/svg"
   xmlns="http://www.w3.org/2000/svg"
   id="svg8305"
   version="1.1"
   viewBox="0 0 210 37.125"
   height="37.125mm"
   width="210mm">
  <defs
     id="defs8299" />
  <metadata
     id="metadata8302">
    <rdf:RDF>
      <cc:Work
         rdf:about="">
        <dc:format>image/svg+xml</dc:format>
        <dc:type
           rdf:resource="http://purl.org/dc/dcmitype/StillImage" />
        <dc:title></dc:title>
      </cc:Work>
    </rdf:RDF>
  </metadata>
  <g
     style="display:none"
     transform="translate(0,-259.875)"
     id="layer1">
    <path
       id="rect20648"
       transform="matrix(0.26458333,0,0,0.26458333,0,263)"
       d="M 0,0 V 13.384766 L 715.12891,128.50391 h 78.57226 v -9.05664 L 51.681641,0 Z"
       mask="none"
       style="display:inline;fill:#ff0000;fill-opacity:1;stroke:none;stroke-width:3.77952766;stroke-miterlimit:4;stroke-dasharray:none" />
    <path
       id="rect24452"
       transform="matrix(0.26458333,0,0,0.26458333,0,263)"
       d="M 740.30078,0 0,120.33789 v 8.16602 H 83.3125 L 793.70117,13.029297 V 0 Z"
       style="fill:#ff0000;fill-opacity:1;stroke:none;stroke-width:2.53343606;stroke-miterlimit:4;stroke-dasharray:none" />
  </g>
  <g
     transform="translate(0,3.125)"
     style="display:inline"
     id="layer2">
    <g
       transform="matrix(0.95799182,0,0,0.95799182,3.1887538,-252.20614)"
       id="g11892"
       style="display:inline">
      <path
         id="path11863"
         style="font-style:normal;font-variant:normal;font-weight:bold;font-stretch:normal;font-size:medium;line-height:125%;font-family:asap;-inkscape-font-specification:'asap Bold';letter-spacing:0px;word-spacing:0px;fill:#000000;fill-opacity:1;stroke:none;stroke-width:0.66443563px;stroke-linecap:butt;stroke-linejoin:miter;stroke-opacity:1"
         d="m 24.069794,269.97226 h -1.382026 c -0.770745,0 -1.382026,0.18604 -1.674378,0.71759 l -4.491585,7.86691 -0.239197,0.45182 -0.212619,-0.37208 -4.465007,-7.94665 C 11.31263,270.1583 10.701349,269.97226 9.9306039,269.97226 H 8.5220004 c -1.1162519,0 -1.5946455,0.29235 -1.5946455,0.85047 v 17.00956 c 0,0.55812 0.4783936,0.85047 1.5946455,0.85047 h 0.7707453 c 1.1162523,0 1.5946453,-0.29235 1.5946453,-0.85047 v -11.00306 l 0.10631,-0.0266 3.853727,6.88356 c 0.239196,0.31893 0.558125,0.50497 1.063097,0.50497 h 0.770745 c 0.504971,0 0.8239,-0.18604 1.063097,-0.50497 l 3.853726,-6.88356 0.10631,0.0266 v 11.00306 c 0,0.55812 0.478394,0.85047 1.594646,0.85047 h 0.770745 c 1.116252,0 1.594645,-0.29235 1.594645,-0.85047 v -17.00956 c 0,-0.55812 -0.478393,-0.85047 -1.594645,-0.85047 z" />
      <path
         id="path11865"
         style="font-style:normal;font-variant:normal;font-weight:bold;font-stretch:normal;font-size:medium;line-height:125%;font-family:asap;-inkscape-font-specification:'asap Bold';letter-spacing:0px;word-spacing:0px;fill:#000000;fill-opacity:1;stroke:none;stroke-width:0.66443563px;stroke-linecap:butt;stroke-linejoin:miter;stroke-opacity:1"
         d="m 35.09278,274.517 c -3.800571,0 -6.458314,2.01988 -6.458314,7.25563 0,4.27897 2.126194,7.0696 6.936708,7.0696 1.488336,0 4.783937,-0.58471 4.783937,-1.91358 0,-0.53155 -0.797323,-2.01988 -1.382027,-2.01988 -0.372084,0 -1.54149,0.8239 -3.215868,0.8239 -1.727533,0 -2.870362,-0.66444 -3.056404,-2.79063 h 6.777243 c 0.345507,0 1.355449,-1.11625 1.355449,-1.56807 0,-3.69426 -1.568068,-6.85697 -5.740724,-6.85697 z m 0,3.10955 c 1.328872,0 1.913575,1.14283 1.913575,2.68432 h -4.305543 c 0.318929,-2.04646 1.275717,-2.68432 2.391968,-2.68432 z" />
      <path
         id="path11867"
         style="font-style:normal;font-variant:normal;font-weight:bold;font-stretch:normal;font-size:medium;line-height:125%;font-family:asap;-inkscape-font-specification:'asap Bold';letter-spacing:0px;word-spacing:0px;fill:#000000;fill-opacity:1;stroke:none;stroke-width:0.66443563px;stroke-linecap:butt;stroke-linejoin:miter;stroke-opacity:1"
         d="m 51.173783,274.517 c -1.727532,0 -3.189291,1.00994 -3.960036,2.01988 -0.159465,-0.66444 -0.212619,-1.72753 -1.063097,-1.72753 -0.664436,0 -2.976672,0.21262 -2.976672,0.85047 0,0.53155 0.318929,1.08968 0.318929,3.74742 v 8.42505 c 0,0.55812 0.478394,0.85047 1.594646,0.85047 h 0.744168 c 1.116252,0 1.594645,-0.29235 1.594645,-0.85047 v -8.53136 c 0.318929,-0.61128 1.03652,-1.54149 2.126194,-1.54149 1.169407,0 1.594646,0.61128 1.594646,1.6478 v 8.42505 c 0,0.55812 0.478393,0.85047 1.594645,0.85047 h 0.744168 c 1.116252,0 1.594646,-0.29235 1.594646,-0.85047 v -9.00975 c 0,-2.9501 -1.249139,-4.30554 -3.906882,-4.30554 z" />
      <path
         id="path11869"
         style="font-style:normal;font-variant:normal;font-weight:bold;font-stretch:normal;font-size:medium;line-height:125%;font-family:asap;-inkscape-font-specification:'asap Bold';letter-spacing:0px;word-spacing:0px;fill:#000000;fill-opacity:1;stroke:none;stroke-width:0.66443563px;stroke-linecap:butt;stroke-linejoin:miter;stroke-opacity:1"
         d="m 65.967858,274.517 c -1.727532,0 -3.189291,1.00994 -3.960036,2.01988 -0.159465,-0.66444 -0.212619,-1.72753 -1.063097,-1.72753 -0.664436,0 -2.976672,0.21262 -2.976672,0.85047 0,0.53155 0.318929,1.08968 0.318929,3.74742 v 8.42505 c 0,0.55812 0.478394,0.85047 1.594646,0.85047 h 0.744168 c 1.116252,0 1.594645,-0.29235 1.594645,-0.85047 v -8.53136 c 0.318929,-0.61128 1.03652,-1.54149 2.126194,-1.54149 1.169407,0 1.594646,0.61128 1.594646,1.6478 v 8.42505 c 0,0.55812 0.478393,0.85047 1.594645,0.85047 h 0.744168 c 1.116252,0 1.594646,-0.29235 1.594646,-0.85047 v -9.00975 c 0,-2.9501 -1.249139,-4.30554 -3.906882,-4.30554 z" />
      <path
         id="path11871"
         style="font-style:normal;font-variant:normal;font-weight:bold;font-stretch:normal;font-size:medium;line-height:125%;font-family:asap;-inkscape-font-specification:'asap Bold';letter-spacing:0px;word-spacing:0px;fill:#000000;fill-opacity:1;stroke:none;stroke-width:0.66443563px;stroke-linecap:butt;stroke-linejoin:miter;stroke-opacity:1"
         d="m 82.516043,274.67646 h -0.637858 c -0.770745,0 -1.355449,0.13289 -1.488336,0.55813 l -1.568068,4.91682 c -0.186042,0.5847 -0.504971,2.07304 -0.744168,3.21587 h -0.106309 c -0.239197,-1.14283 -0.558126,-2.60459 -0.744168,-3.21587 l -1.568068,-4.91682 c -0.132887,-0.42524 -0.717591,-0.55813 -1.488336,-0.55813 h -0.850478 c -1.116252,0 -1.621223,0.21262 -1.621223,0.5847 0,0.13289 0.05315,0.29236 0.10631,0.4784 l 4.385275,12.89005 -1.674378,4.43843 c -0.07973,0.18604 -0.106309,0.3455 -0.106309,0.47839 0,0.34551 0.504971,0.55813 1.594645,0.55813 h 0.451816 c 0.770746,0 1.328872,-0.13289 1.488336,-0.55813 l 6.086231,-17.80687 c 0.05315,-0.18604 0.07973,-0.34551 0.07973,-0.4784 0,-0.37208 -0.478394,-0.5847 -1.594646,-0.5847 z" />
      <path
         id="path11873"
         style="font-style:normal;font-variant:normal;font-weight:bold;font-stretch:normal;font-size:medium;line-height:125%;font-family:asap;-inkscape-font-specification:'asap Bold';letter-spacing:0px;word-spacing:0px;fill:#000000;fill-opacity:1;stroke:none;stroke-width:0.66443563px;stroke-linecap:butt;stroke-linejoin:miter;stroke-opacity:1"
         d="m 88.109761,268.59023 h -0.744168 c -1.116251,0 -1.594645,0.29235 -1.594645,0.85048 v 2.15277 c 0,0.55812 0.478394,0.85048 1.594645,0.85048 h 0.744168 c 1.116252,0 1.594646,-0.29236 1.594646,-0.85048 v -2.15277 c 0,-0.55813 -0.478394,-0.85048 -1.594646,-0.85048 z m 0,6.08623 h -0.744168 c -1.116251,0 -1.594645,0.29235 -1.594645,0.85048 v 12.30535 c 0,0.55812 0.478394,0.85047 1.594645,0.85047 h 0.744168 c 1.116252,0 1.594646,-0.29235 1.594646,-0.85047 v -12.30535 c 0,-0.55813 -0.478394,-0.85048 -1.594646,-0.85048 z" />
      <path
         id="path11875"
         style="font-style:normal;font-variant:normal;font-weight:bold;font-stretch:normal;font-size:medium;line-height:125%;font-family:asap;-inkscape-font-specification:'asap Bold';letter-spacing:0px;word-spacing:0px;fill:#000000;fill-opacity:1;stroke:none;stroke-width:0.66443563px;stroke-linecap:butt;stroke-linejoin:miter;stroke-opacity:1"
         d="m 97.109537,269.81279 c -2.073039,0 -4.996556,0.5847 -4.996556,2.15277 0,0.55813 0.93021,2.17935 1.674378,2.17935 0.372084,0 1.435181,-0.8239 2.976672,-0.8239 1.355448,0 1.966729,0.55813 1.966729,1.48834 0,0.87705 -1.195984,1.91357 -2.312236,3.21587 -0.93021,1.11625 -1.807265,2.39196 -1.807265,3.93345 0,0.55813 0.372084,0.77075 1.302294,0.77075 h 0.611281 c 0.877055,0 1.249139,-0.15946 1.408603,-0.71759 0.478394,-2.55143 4.943403,-3.40191 4.943403,-7.46826 0,-2.92351 -2.20593,-4.73078 -5.767303,-4.73078 z m -0.478394,14.72389 h -0.850477 c -1.116252,0 -1.594646,0.29236 -1.594646,0.85048 v 2.44513 c 0,0.55812 0.478394,0.85047 1.594646,0.85047 h 0.850477 c 1.116252,0 1.594646,-0.29235 1.594646,-0.85047 v -2.44513 c 0,-0.55812 -0.478394,-0.85048 -1.594646,-0.85048 z" />
    </g>
    <g
       transform="matrix(0.94403587,0,0,0.94403587,9.1369558,-5.675283)"
       id="g11254"
       style="display:inline">
      <path
         id="path4818"
         style="font-style:normal;font-variant:normal;font-weight:normal;font-stretch:normal;font-size:medium;line-height:125%;font-family:Asap;-inkscape-font-specification:Asap;letter-spacing:0px;word-spacing:0px;fill:#000000;fill-opacity:1;stroke:none;stroke-width:0.6654256px;stroke-linecap:butt;stroke-linejoin:miter;stroke-opacity:1"
         d="m 142.16055,12.713684 c -1.62363,0 -4.79107,0.825124 -4.79107,1.943033 0,0.399255 0.58557,1.330864 0.85175,1.330864 0.45248,0 1.57039,-1.357464 3.99256,-1.357464 2.04949,0 3.32711,1.064666 3.32711,2.768142 0,1.117923 -0.13304,1.650276 -1.80994,3.859493 l -6.86719,8.62391 c -0.08,0.07998 -0.10639,0.26617 -0.10639,0.452483 0,0.50574 0.21302,1.171151 0.53235,1.171151 h 10.1677 c 0.37264,0 0.53235,-0.239681 0.53235,-0.79851 v -0.292798 c 0,-0.558954 -0.15971,-0.79851 -0.53235,-0.79851 h -7.66571 l 1.94306,-2.368902 c 5.37663,-6.57442 6.09529,-7.452773 6.09529,-10.008016 0,-2.794785 -2.18258,-4.524876 -5.66942,-4.524876 z" />
      <path
         id="path4820"
         style="font-style:normal;font-variant:normal;font-weight:normal;font-stretch:normal;font-size:medium;line-height:125%;font-family:Asap;-inkscape-font-specification:Asap;letter-spacing:0px;word-spacing:0px;fill:#000000;fill-opacity:1;stroke:none;stroke-width:0.6654256px;stroke-linecap:butt;stroke-linejoin:miter;stroke-opacity:1"
         d="m 156.31063,17.60383 h -0.18636 c -0.55896,0 -0.79851,0.159699 -0.79851,0.532326 v 4.764459 h -4.76443 c -0.37265,0 -0.53235,0.346013 -0.53235,0.904967 v 0.186369 c 0,0.558954 0.1597,0.692025 0.53235,0.692025 h 4.76443 v 4.764446 c 0,0.372654 0.23942,0.532354 0.79851,0.532354 h 0.18636 c 0.55896,0 0.79851,-0.1597 0.79851,-0.532354 v -4.764446 h 4.73782 c 0.37265,0 0.53235,-0.23943 0.53235,-0.79851 v -0.186369 c 0,-0.558954 -0.1597,-0.79851 -0.53235,-0.79851 h -4.73782 v -4.764459 c 0,-0.372613 -0.23968,-0.532326 -0.79851,-0.532326 z" />
      <path
         id="path4822"
         style="font-style:normal;font-variant:normal;font-weight:normal;font-stretch:normal;font-size:medium;line-height:125%;font-family:Asap;-inkscape-font-specification:Asap;letter-spacing:0px;word-spacing:0px;fill:#000000;fill-opacity:1;stroke:none;stroke-width:0.6654256px;stroke-linecap:butt;stroke-linejoin:miter;stroke-opacity:1"
         d="m 169.05442,12.713684 c -1.62363,0 -4.79107,0.825124 -4.79107,1.943033 0,0.399255 0.5856,1.330864 0.85176,1.330864 0.4525,0 1.57041,-1.357464 3.99255,-1.357464 2.04952,0 3.32714,1.064666 3.32714,2.768142 0,1.117923 -0.13304,1.650276 -1.80996,3.859493 l -6.8672,8.62391 c -0.0797,0.07998 -0.10639,0.26617 -0.10639,0.452483 0,0.50574 0.21302,1.171151 0.53233,1.171151 h 10.16772 c 0.37262,0 0.53233,-0.239681 0.53233,-0.79851 v -0.292798 c 0,-0.558954 -0.15971,-0.79851 -0.53233,-0.79851 h -7.66571 l 1.94304,-2.368902 c 5.37663,-6.57442 6.09529,-7.452773 6.09529,-10.008016 0,-2.794785 -2.18258,-4.524876 -5.66943,-4.524876 z" />
      <path
         id="path4824"
         style="font-style:normal;font-variant:normal;font-weight:normal;font-stretch:normal;font-size:medium;line-height:125%;font-family:Asap;-inkscape-font-specification:Asap;letter-spacing:0px;word-spacing:0px;fill:#000000;fill-opacity:1;stroke:none;stroke-width:0.6654256px;stroke-linecap:butt;stroke-linejoin:miter;stroke-opacity:1"
         d="m 187.80449,20.93094 h -10.22412 c -0.50572,0 -0.79851,0.266198 -0.79851,0.79851 v 0.18637 c 0,0.505711 0.29279,0.79851 0.79851,0.79851 h 10.22412 c 0.53232,0 0.79851,-0.292799 0.79851,-0.79851 v -0.18637 c 0,-0.532312 -0.26619,-0.79851 -0.79851,-0.79851 z m 0,4.338605 h -10.22412 c -0.50572,0 -0.79851,0.266156 -0.79851,0.798496 v 0.213025 c 0,0.505739 0.29279,0.79851 0.79851,0.79851 h 10.22412 c 0.53232,0 0.79851,-0.292771 0.79851,-0.79851 v -0.213025 c 0,-0.53234 -0.26619,-0.798496 -0.79851,-0.798496 z" />
      <path
         id="path4826"
         style="font-style:normal;font-variant:normal;font-weight:normal;font-stretch:normal;font-size:medium;line-height:125%;font-family:Asap;-inkscape-font-specification:Asap;letter-spacing:0px;word-spacing:0px;fill:#000000;fill-opacity:1;stroke:none;stroke-width:0.6654256px;stroke-linecap:butt;stroke-linejoin:miter;stroke-opacity:1"
         d="m 201.04454,12.820141 h -0.42589 c -0.37262,0 -0.71866,0.133071 -0.90497,0.372655 l -8.75701,12.217205 c -0.0533,0.05337 -0.0533,0.159713 -0.0533,0.29277 0,0.505754 0.34602,1.357478 0.63881,1.357478 h 8.09157 v 3.912693 c 0,0.372655 0.23943,0.585596 0.79851,0.585596 h 0.6122 c 0.55896,0 0.79851,-0.213011 0.79851,-0.585596 v -3.912693 h 1.78333 c 0.37265,0 0.53236,-0.23943 0.53236,-0.79851 v -0.319412 c 0,-0.558954 -0.15971,-0.79851 -0.53236,-0.79851 h -1.78333 V 13.40571 c 0,-0.372613 -0.23943,-0.585569 -0.79851,-0.585569 z m -1.51717,3.80625 0.10639,0.05337 v 8.464225 h -6.09529 z" />
    </g>
    <path
       id="path24644"
       d="m 205,34 h 5"
       style="fill:none;fill-rule:evenodd;stroke:#000000;stroke-width:0.26499999;stroke-linecap:butt;stroke-linejoin:miter;stroke-miterlimit:4;stroke-dasharray:none;stroke-opacity:1" />
    <path
       style="fill:none;fill-rule:evenodd;stroke:#000000;stroke-width:0.26458332px;stroke-linecap:butt;stroke-linejoin:miter;stroke-opacity:1"
       d="M 0,34 H 5"
       id="path24646" />
    <g
       style="display:inline;fill:#000000;stroke:none"
       transform="matrix(0.00543985,0,0,-0.00543985,101.84232,33.512692)"
       id="g4785">
      <path
         d="m 800,5100 v -700 h 700 700 v 700 700 H 1500 800 Z m 1200,0 v -500 h -500 -500 v 500 500 h 500 500 z"
         id="path4757" />
      <path
         d="m 1200,5100 v -300 h 300 300 v 300 300 h -300 -300 z"
         id="path4759" />
      <path
         d="m 2600,5700 v -100 h -100 -100 v -200 -200 h 100 100 v -100 -100 h -100 -100 v -400 -400 h -200 -200 v -100 -100 h 100 100 v -100 -100 h -100 -100 v -100 -100 h -100 -100 v -300 -300 h -100 -100 v 400 400 h 100 100 v 100 100 h -100 -100 v 100 100 h -100 -100 v -100 -100 h -100 -100 v 100 100 H 1000 800 v -300 -300 h 100 100 V 3500 3400 H 900 800 v -100 -100 h 100 100 v 100 100 h 100 100 v 200 200 h 100 100 v -300 -300 h -100 -100 v -200 -200 h -100 -100 v 100 100 H 900 800 v -100 -100 h 100 100 V 2700 2600 H 900 800 v -100 -100 h 200 200 v 200 200 h 100 100 v -200 -200 h 500 500 v -200 -200 h 100 100 v 300 300 h 200 200 v -100 -100 h -100 -100 v -200 -200 h 100 100 v -100 -100 h 100 100 v -200 -200 h 100 100 v 100 100 h 200 200 v -200 -200 h 100 100 V 1000 800 h 400 400 v 100 100 h -300 -300 v 100 100 h -100 -100 v 200 200 h 300 300 v -200 -200 h 200 200 v -100 -100 h 100 100 v 100 100 h 100 100 v 200 200 h 100 100 v 100 100 h 100 100 v 300 300 h -100 -100 v -100 -100 h -100 -100 v -100 -100 h -100 -100 v 200 200 h 100 100 v 100 100 h 100 100 v 100 100 h 100 100 v 300 300 h -200 -200 v -100 -100 h -100 -100 v 100 100 h -100 -100 v 100 100 h -100 -100 v 100 100 h -100 -100 v 100 100 h 200 200 v 100 100 h -300 -300 v -100 -100 h -100 -100 v 600 600 h -300 -300 v -100 -100 h -100 -100 v -200 -200 h -100 -100 v 100 100 h -100 -100 v -100 -100 h -100 -100 v 100 100 h -100 -100 v 100 100 h 300 300 v 100 100 h 100 100 v 200 200 h 200 200 v -100 -100 h 200 200 v 100 100 h -100 -100 v 100 100 h -400 -400 v -100 -100 h -100 -100 v -100 -100 h -200 -200 v 100 100 h 100 100 v 100 100 h -100 -100 z m 1200,-900 v -200 h 100 100 v -100 -100 h -100 -100 v 100 100 h -100 -100 v -200 -200 h -100 -100 v 200 200 h 100 100 v 200 200 h 100 100 z M 2800,4500 v -100 h 100 100 v 100 100 h 100 100 v -300 -300 h 100 100 v -100 -100 h 100 100 v 100 100 h 200 200 v -400 -400 h 100 100 v 100 100 h 100 100 v 200 200 h 100 100 v -200 -200 h -100 -100 v -200 -200 h -200 -200 v -200 -200 h -100 -100 v -100 -100 h -100 -100 v -300 -300 h -100 -100 v 100 100 h -200 -200 v 100 100 h 100 100 v 100 100 h 100 100 v 100 100 h 100 100 v 100 100 h 100 100 v 100 100 h -100 -100 v 100 100 h 100 100 v 300 300 h -100 -100 v -100 -100 h -100 -100 v -400 -400 h -100 -100 v -100 -100 h -100 -100 v 100 100 h 100 100 v 100 100 h -100 -100 v 100 100 h -100 -100 v -100 -100 h -100 -100 v -200 -200 h -300 -300 v 100 100 h 100 100 v 100 100 h -100 -100 v 100 100 h 100 100 v -100 -100 h 200 200 v 300 300 h -100 -100 v -100 -100 h -200 -200 v 100 100 h 100 100 v 100 100 h 200 200 v 100 100 h -100 -100 v 100 100 h 200 200 v 100 100 h -100 -100 v 100 100 h 100 100 z M 1200,3900 v -100 h -100 -100 v 100 100 h 100 100 z m 400,0 v -100 h -100 -100 v 100 100 h 100 100 z m 3400,-700 v -200 h 100 100 v -100 -100 h 100 100 v 200 200 h 100 100 v -200 -200 h -100 -100 v -100 -100 h -200 -200 v 200 200 h -200 -200 v 100 100 h 100 100 v 100 100 h 100 100 z M 1600,2900 v -100 h 100 100 v -100 -100 h -100 -100 v 100 100 h -100 -100 v 100 100 h 100 100 z m 3200,-200 v -100 h -100 -100 v 100 100 h 100 100 z m 0,-600 v -300 h -300 -300 v 300 300 h 300 300 z m 800,-200 v -100 h -100 -100 v -100 -100 h -100 -100 v 100 100 h 100 100 v 100 100 h 100 100 z M 4000,1700 v -100 h -100 -100 v 100 100 h 100 100 z m 1200,-400 v -100 h -100 -100 v 100 100 h 100 100 z"
         id="path4761" />
      <path
         d="m 2800,4000 v -200 h -100 -100 v -100 -100 h 200 200 v -100 -100 h 100 100 v 100 100 h 100 100 v 100 100 h -100 -100 v 100 100 h -100 -100 v 100 100 h -100 -100 z m 400,-300 v -100 h -100 -100 v 100 100 h 100 100 z"
         id="path4763" />
      <path
         d="m 4400,2100 v -100 h 100 100 v 100 100 h -100 -100 z"
         id="path4765" />
      <path
         d="m 4400,5100 v -700 h 700 700 v 700 700 h -700 -700 z m 1200,0 v -500 h -500 -500 v 500 500 h 500 500 z"
         id="path4767" />
      <path
         d="m 4800,5100 v -300 h 300 300 v 300 300 h -300 -300 z"
         id="path4769" />
      <path
         d="m 5200,4100 v -100 h 200 200 v -100 -100 h -100 -100 v -100 -100 h 200 200 v 200 200 h -100 -100 v 100 100 h -200 -200 z"
         id="path4771" />
      <path
         d="M 800,1500 V 800 h 700 700 v 700 700 H 1500 800 Z m 1200,0 v -500 h -500 -500 v 500 500 h 500 500 z"
         id="path4773" />
      <path
         d="m 1200,1500 v -300 h 300 300 v 300 300 h -300 -300 z"
         id="path4775" />
      <path
         d="m 2400,1500 v -100 h 200 200 v -200 -200 h 100 100 V 900 800 h 400 400 v 100 100 h -100 -100 v 100 100 h -300 -300 v 200 200 h -300 -300 z"
         id="path4777" />
      <path
         d="m 5600,1300 v -100 h 100 100 v 100 100 h -100 -100 z"
         id="path4779" />
      <path
         d="M 2400,1000 V 800 h 100 100 v 200 200 h -100 -100 z"
         id="path4781" />
      <path
         d="M 5400,900 V 800 h 200 200 v 100 100 h -200 -200 z"
         id="path4783" />
    </g>
    <g
       id="text5462"
       style="font-style:normal;font-variant:normal;font-weight:normal;font-stretch:normal;font-size:1.50810409px;line-height:125%;font-family:Asap;-inkscape-font-specification:Asap;letter-spacing:0px;word-spacing:0px;fill:#000000;fill-opacity:1;stroke:none;stroke-width:0.03770261px;stroke-linecap:butt;stroke-linejoin:miter;stroke-opacity:1"
       aria-label="https://2m2a4.github.io/m/2">
      <path
         id="path8732"
         style="font-style:normal;font-variant:normal;font-weight:normal;font-stretch:normal;font-family:Asap;-inkscape-font-specification:Asap;stroke-width:0.03770261px"
         d="m 106.25293,30.027304 h -0.006 c -0.0422,0 -0.0603,0.01206 -0.0603,0.03318 v 1.070754 c 0,0.02111 0.0181,0.03318 0.0603,0.03318 h 0.006 c 0.0422,0 0.0603,-0.01206 0.0603,-0.03318 V 30.57927 c 0,0 0.0769,-0.105568 0.19003,-0.105568 0.10255,0 0.15382,0.05731 0.15382,0.146287 v 0.511247 c 0,0.02111 0.0181,0.03318 0.0603,0.03318 h 0.006 c 0.0422,0 0.0603,-0.01206 0.0603,-0.03318 v -0.523312 c 0,-0.205102 -0.14327,-0.244313 -0.23979,-0.244313 -0.0965,0 -0.17795,0.05128 -0.23074,0.104059 v -0.407188 c 0,-0.02111 -0.0181,-0.03318 -0.0603,-0.03318 z" />
      <path
         id="path8734"
         style="font-style:normal;font-variant:normal;font-weight:normal;font-stretch:normal;font-family:Asap;-inkscape-font-specification:Asap;stroke-width:0.03770261px"
         d="m 107.14189,30.18113 h -0.0151 c -0.0317,0 -0.0468,0.01206 -0.0483,0.03318 l -0.0181,0.15835 h -0.0754 c -0.0211,0 -0.0302,0.01357 -0.0302,0.04524 v 0.0181 c 0,0.03167 0.009,0.04524 0.0302,0.04524 h 0.0754 v 0.481085 c 0,0.17494 0.11914,0.208119 0.19455,0.208119 0.0407,0 0.11009,-0.0045 0.11009,-0.04524 0,-0.01206 -0.0106,-0.07088 -0.0317,-0.07088 -0.0136,0 -0.0211,0.0075 -0.0649,0.0075 -0.0437,0 -0.0814,-0.02111 -0.0814,-0.1116 v -0.46902 h 0.12668 c 0.0211,0 0.0302,-0.01357 0.0302,-0.04524 v -0.0181 c 0,-0.03167 -0.009,-0.04524 -0.0302,-0.04524 h -0.12668 v -0.15835 c 0,-0.02111 -0.0136,-0.03318 -0.0452,-0.03318 z" />
      <path
         id="path8736"
         style="font-style:normal;font-variant:normal;font-weight:normal;font-stretch:normal;font-family:Asap;-inkscape-font-specification:Asap;stroke-width:0.03770261px"
         d="m 107.65735,30.18113 h -0.0151 c -0.0317,0 -0.0468,0.01206 -0.0483,0.03318 l -0.0181,0.15835 h -0.0754 c -0.0211,0 -0.0302,0.01357 -0.0302,0.04524 v 0.0181 c 0,0.03167 0.009,0.04524 0.0302,0.04524 h 0.0754 v 0.481085 c 0,0.17494 0.11914,0.208119 0.19454,0.208119 0.0407,0 0.11009,-0.0045 0.11009,-0.04524 0,-0.01206 -0.0105,-0.07088 -0.0317,-0.07088 -0.0136,0 -0.0211,0.0075 -0.0648,0.0075 -0.0437,0 -0.0814,-0.02111 -0.0814,-0.1116 v -0.46902 h 0.12668 c 0.0211,0 0.0302,-0.01357 0.0302,-0.04524 v -0.0181 c 0,-0.03167 -0.009,-0.04524 -0.0302,-0.04524 h -0.12668 v -0.15835 c 0,-0.02111 -0.0136,-0.03318 -0.0453,-0.03318 z" />
      <path
         id="path8738"
         style="font-style:normal;font-variant:normal;font-weight:normal;font-stretch:normal;font-family:Asap;-inkscape-font-specification:Asap;stroke-width:0.03770261px"
         d="m 108.41562,30.363611 c -0.086,0 -0.16589,0.03619 -0.23979,0.113108 -0.009,-0.03921 -0.0166,-0.09953 -0.0528,-0.09953 -0.0196,0 -0.0814,0.006 -0.0814,0.03469 0,0.0075 0.0181,0.06636 0.0181,0.190021 v 0.840014 c 0,0.02111 0.0181,0.03318 0.0603,0.03318 h 0.006 c 0.0422,0 0.0603,-0.01206 0.0603,-0.03318 v -0.348372 c 0.0588,0.04524 0.12216,0.07691 0.21566,0.07691 0.17946,0 0.30614,-0.141762 0.30614,-0.402664 0,-0.232248 -0.10556,-0.404172 -0.29257,-0.404172 z m -0.0256,0.110091 c 0.11915,0 0.1855,0.110092 0.1855,0.304637 0,0.179465 -0.0679,0.277492 -0.20208,0.280508 -0.0694,0 -0.13272,-0.02262 -0.18701,-0.06787 v -0.41322 c 0.0618,-0.06787 0.13724,-0.10406 0.20359,-0.10406 z" />
      <path
         id="path8740"
         style="font-style:normal;font-variant:normal;font-weight:normal;font-stretch:normal;font-family:Asap;-inkscape-font-specification:Asap;stroke-width:0.03770261px"
         d="m 109.11428,30.362103 c -0.14629,0 -0.25035,0.09199 -0.25035,0.218675 0,0.113108 0.0468,0.177956 0.20963,0.226215 0.1131,0.03318 0.15081,0.06787 0.15081,0.13573 0,0.08295 -0.0513,0.122156 -0.1478,0.122156 -0.10707,0 -0.1674,-0.06032 -0.17795,-0.06032 -0.0211,0 -0.0528,0.05882 -0.0528,0.0754 0,0.03469 0.10255,0.09501 0.23979,0.09501 0.1493,0 0.26694,-0.09953 0.26694,-0.235264 0,-0.137238 -0.0558,-0.187005 -0.2413,-0.244313 -0.0845,-0.02564 -0.11763,-0.06334 -0.11763,-0.131205 0,-0.05882 0.0588,-0.09501 0.13422,-0.09501 0.0814,0 0.1297,0.03921 0.13724,0.03921 0.0196,0 0.0483,-0.05731 0.0483,-0.08144 0,-0.03318 -0.0965,-0.06485 -0.19907,-0.06485 z" />
      <path
         id="path8742"
         style="font-style:normal;font-variant:normal;font-weight:normal;font-stretch:normal;font-family:Asap;-inkscape-font-specification:Asap;stroke-width:0.03770261px"
         d="m 109.57743,30.369643 h -0.0256 c -0.0422,0 -0.0603,0.01206 -0.0603,0.03318 v 0.09953 c 0,0.02111 0.0181,0.03318 0.0603,0.03318 h 0.0256 c 0.0422,0 0.0603,-0.01206 0.0603,-0.03318 v -0.09953 c 0,-0.02111 -0.0181,-0.03318 -0.0603,-0.03318 z m 0,0.62888 h -0.0256 c -0.0422,0 -0.0603,0.01206 -0.0603,0.03318 v 0.09953 c 0,0.02111 0.0181,0.03318 0.0603,0.03318 h 0.0256 c 0.0422,0 0.0603,-0.01206 0.0603,-0.03318 v -0.09953 c 0,-0.02111 -0.0181,-0.03318 -0.0603,-0.03318 z" />
      <path
         id="path8744"
         style="font-style:normal;font-variant:normal;font-weight:normal;font-stretch:normal;font-family:Asap;-inkscape-font-specification:Asap;stroke-width:0.03770261px"
         d="m 110.22782,30.101201 h -0.006 c -0.0256,0 -0.0422,0.01056 -0.0528,0.03469 l -0.46752,1.087343 c -0.003,0.0075 -0.005,0.01508 -0.005,0.02262 0,0.0181 0.0136,0.03016 0.0392,0.03016 h 0.006 c 0.0256,0 0.0392,-0.01056 0.0498,-0.03469 l 0.46751,-1.087343 c 0.003,-0.0075 0.005,-0.01508 0.005,-0.02262 0,-0.0181 -0.0106,-0.03016 -0.0362,-0.03016 z" />
      <path
         id="path8746"
         style="font-style:normal;font-variant:normal;font-weight:normal;font-stretch:normal;font-family:Asap;-inkscape-font-specification:Asap;stroke-width:0.03770261px"
         d="m 110.78452,30.101201 h -0.006 c -0.0256,0 -0.0422,0.01056 -0.0528,0.03469 l -0.46751,1.087343 c -0.003,0.0075 -0.005,0.01508 -0.005,0.02262 0,0.0181 0.0136,0.03016 0.0392,0.03016 h 0.006 c 0.0256,0 0.0392,-0.01056 0.0498,-0.03469 l 0.46751,-1.087343 c 0.003,-0.0075 0.005,-0.01508 0.005,-0.02262 0,-0.0181 -0.0106,-0.03016 -0.0362,-0.03016 z" />
      <path
         id="path8748"
         style="font-style:normal;font-variant:normal;font-weight:normal;font-stretch:normal;font-family:Asap;-inkscape-font-specification:Asap;stroke-width:0.03770261px"
         d="m 111.20851,30.096676 c -0.092,0 -0.27146,0.04675 -0.27146,0.110092 0,0.02262 0.0332,0.0754 0.0483,0.0754 0.0256,0 0.089,-0.07691 0.22622,-0.07691 0.11612,0 0.18851,0.06032 0.18851,0.156843 0,0.06334 -0.008,0.0935 -0.10255,0.218675 l -0.38909,0.488626 c -0.005,0.0045 -0.006,0.01508 -0.006,0.02564 0,0.02865 0.0121,0.06636 0.0302,0.06636 h 0.5761 c 0.0211,0 0.0302,-0.01357 0.0302,-0.04524 v -0.01659 c 0,-0.03167 -0.009,-0.04524 -0.0302,-0.04524 h -0.43434 l 0.11009,-0.134222 c 0.30464,-0.372501 0.34536,-0.422269 0.34536,-0.567047 0,-0.158351 -0.12366,-0.256378 -0.32123,-0.256378 z" />
      <path
         id="path8750"
         style="font-style:normal;font-variant:normal;font-weight:normal;font-stretch:normal;font-family:Asap;-inkscape-font-specification:Asap;stroke-width:0.03770261px"
         d="m 112.56152,30.363611 c -0.095,0 -0.18248,0.05731 -0.23979,0.125173 -0.0422,-0.102552 -0.14176,-0.125173 -0.21566,-0.125173 -0.0965,0 -0.17946,0.0558 -0.22923,0.113108 -0.009,-0.03921 -0.0166,-0.09953 -0.0528,-0.09953 -0.0196,0 -0.0814,0.006 -0.0814,0.03469 0,0.0075 0.0181,0.06636 0.0181,0.190021 v 0.529345 c 0,0.02111 0.0181,0.03318 0.0603,0.03318 h 0.006 c 0.0422,0 0.0603,-0.01206 0.0603,-0.03318 v -0.553474 c 0,0 0.0739,-0.10406 0.18398,-0.10406 0.0965,0 0.14478,0.05731 0.14478,0.146287 v 0.511247 c 0,0.02111 0.0181,0.03318 0.0603,0.03318 h 0.006 c 0.0422,0 0.0603,-0.01206 0.0603,-0.03318 v -0.521804 c 0,-0.009 0,-0.01961 -0.001,-0.03016 0.0241,-0.02865 0.0935,-0.105568 0.18549,-0.105568 0.0965,0 0.14478,0.05731 0.14478,0.146287 v 0.511247 c 0,0.02111 0.0181,0.03318 0.0603,0.03318 h 0.006 c 0.0422,0 0.0603,-0.01206 0.0603,-0.03318 v -0.523312 c 0,-0.205102 -0.14025,-0.244313 -0.23677,-0.244313 z" />
      <path
         id="path8752"
         style="font-style:normal;font-variant:normal;font-weight:normal;font-stretch:normal;font-family:Asap;-inkscape-font-specification:Asap;stroke-width:0.03770261px"
         d="m 113.29394,30.096676 c -0.092,0 -0.27146,0.04675 -0.27146,0.110092 0,0.02262 0.0332,0.0754 0.0483,0.0754 0.0256,0 0.089,-0.07691 0.22622,-0.07691 0.11612,0 0.18851,0.06032 0.18851,0.156843 0,0.06334 -0.008,0.0935 -0.10255,0.218675 l -0.38909,0.488626 c -0.005,0.0045 -0.006,0.01508 -0.006,0.02564 0,0.02865 0.0121,0.06636 0.0302,0.06636 h 0.57609 c 0.0211,0 0.0302,-0.01357 0.0302,-0.04524 v -0.01659 c 0,-0.03167 -0.009,-0.04524 -0.0302,-0.04524 h -0.43433 l 0.11009,-0.134222 c 0.30464,-0.372501 0.34536,-0.422269 0.34536,-0.567047 0,-0.158351 -0.12367,-0.256378 -0.32123,-0.256378 z" />
      <path
         id="path8754"
         style="font-style:normal;font-variant:normal;font-weight:normal;font-stretch:normal;font-family:Asap;-inkscape-font-specification:Asap;stroke-width:0.03770261px"
         d="m 114.12212,30.363611 c -0.15081,0 -0.28352,0.05731 -0.28352,0.09652 0,0.01659 0.0317,0.0754 0.0528,0.0754 0.0151,0 0.098,-0.06334 0.23527,-0.06334 0.12517,0 0.16589,0.05882 0.16589,0.126681 v 0.07088 c -0.23074,0.003 -0.50069,0.01961 -0.50069,0.274475 0,0.155335 0.1116,0.226216 0.25788,0.226216 0.11311,0 0.19606,-0.04977 0.25337,-0.113108 0.009,0.04223 0.0166,0.105567 0.0528,0.105567 0.0196,0 0.0814,-0.006 0.0814,-0.03469 0,-0.0075 -0.0181,-0.06636 -0.0181,-0.190021 v -0.337816 c 0,-0.149302 -0.11009,-0.236772 -0.2971,-0.236772 z m 0.17042,0.414728 v 0.177957 c -0.0603,0.05429 -0.12668,0.104059 -0.23677,0.104059 -0.0845,0 -0.12819,-0.04374 -0.12819,-0.123665 0,-0.156842 0.20812,-0.156842 0.36496,-0.158351 z" />
      <path
         id="path8756"
         style="font-style:normal;font-variant:normal;font-weight:normal;font-stretch:normal;font-family:Asap;-inkscape-font-specification:Asap;stroke-width:0.03770261px"
         d="m 115.14148,30.102709 h -0.0241 c -0.0211,0 -0.0407,0.0075 -0.0513,0.02111 l -0.49617,0.69222 c -0.003,0.003 -0.003,0.009 -0.003,0.01659 0,0.02865 0.0196,0.07691 0.0362,0.07691 h 0.45847 v 0.221691 c 0,0.02111 0.0136,0.03318 0.0452,0.03318 h 0.0347 c 0.0317,0 0.0452,-0.01206 0.0452,-0.03318 v -0.221691 h 0.10104 c 0.0211,0 0.0302,-0.01357 0.0302,-0.04524 v -0.0181 c 0,-0.03167 -0.009,-0.04524 -0.0302,-0.04524 h -0.10104 v -0.665074 c 0,-0.02111 -0.0136,-0.03318 -0.0452,-0.03318 z m -0.086,0.215659 0.006,0.003 v 0.479577 h -0.34536 z" />
      <path
         id="path8758"
         style="font-style:normal;font-variant:normal;font-weight:normal;font-stretch:normal;font-family:Asap;-inkscape-font-specification:Asap;stroke-width:0.03770261px"
         d="m 115.5097,30.998523 h -0.0256 c -0.0422,0 -0.0603,0.01206 -0.0603,0.03318 v 0.09953 c 0,0.02111 0.0181,0.03318 0.0603,0.03318 h 0.0256 c 0.0422,0 0.0603,-0.01206 0.0603,-0.03318 v -0.09953 c 0,-0.02111 -0.0181,-0.03318 -0.0603,-0.03318 z" />
      <path
         id="path8760"
         style="font-style:normal;font-variant:normal;font-weight:normal;font-stretch:normal;font-family:Asap;-inkscape-font-specification:Asap;stroke-width:0.03770261px"
         d="m 116.04397,30.363611 c -0.19455,0 -0.2971,0.108583 -0.2971,0.245821 0,0.09049 0.0437,0.170416 0.1297,0.212643 -0.0543,0.0377 -0.0845,0.08898 -0.0845,0.156842 0,0.05731 0.0241,0.09501 0.0603,0.123665 l -0.002,0.003 c -0.0769,0.03167 -0.13724,0.09652 -0.13724,0.188513 0,0.135729 0.13121,0.187005 0.31218,0.187005 0.22622,0 0.34385,-0.08295 0.34385,-0.227724 0,-0.138745 -0.11311,-0.165891 -0.22773,-0.180972 -0.12064,-0.01508 -0.2428,-0.01508 -0.2428,-0.1116 0,-0.0754 0.0528,-0.101043 0.14327,-0.104059 0.19454,0 0.2971,-0.108584 0.2971,-0.247329 0,-0.04675 -0.0136,-0.0935 -0.0392,-0.129697 l 0.002,-0.003 c 0.0287,0.003 0.0573,0.0045 0.10557,0.0045 0.0211,0 0.0302,-0.01357 0.0302,-0.04524 v -0.0181 c 0,-0.03167 -0.009,-0.04524 -0.0302,-0.04524 h -0.27447 c -0.0271,-0.006 -0.0573,-0.009 -0.089,-0.009 z m -0.002,0.101043 c 0.0995,0 0.18097,0.03469 0.18097,0.146286 0,0.110092 -0.0814,0.144778 -0.18097,0.144778 -0.0995,0 -0.17947,-0.03469 -0.17947,-0.144778 0,-0.1116 0.0799,-0.146286 0.17947,-0.146286 z m -0.11613,0.683171 c 0.11311,0.03469 0.32274,0.006 0.32274,0.11914 0,0.0754 -0.0664,0.1116 -0.20661,0.1116 -0.0965,0 -0.21566,-0.01659 -0.21566,-0.108584 0,-0.06334 0.0452,-0.09953 0.0995,-0.122156 z" />
      <path
         id="path8762"
         style="font-style:normal;font-variant:normal;font-weight:normal;font-stretch:normal;font-family:Asap;-inkscape-font-specification:Asap;stroke-width:0.03770261px"
         d="m 116.67869,30.027304 h -0.0181 c -0.0422,0 -0.0603,0.01206 -0.0603,0.03318 v 0.08898 c 0,0.02111 0.0181,0.03318 0.0603,0.03318 h 0.0181 c 0.0422,0 0.0603,-0.01206 0.0603,-0.03318 v -0.08898 c 0,-0.02111 -0.0181,-0.03318 -0.0603,-0.03318 z m -0.006,0.342339 h -0.006 c -0.0422,0 -0.0603,0.01206 -0.0603,0.03318 v 0.728414 c 0,0.02111 0.0181,0.03318 0.0603,0.03318 h 0.006 c 0.0422,0 0.0603,-0.01206 0.0603,-0.03318 v -0.728414 c 0,-0.02111 -0.0181,-0.03318 -0.0603,-0.03318 z" />
      <path
         id="path8764"
         style="font-style:normal;font-variant:normal;font-weight:normal;font-stretch:normal;font-family:Asap;-inkscape-font-specification:Asap;stroke-width:0.03770261px"
         d="m 117.11246,30.18113 h -0.0151 c -0.0317,0 -0.0468,0.01206 -0.0483,0.03318 l -0.0181,0.15835 h -0.0754 c -0.0211,0 -0.0302,0.01357 -0.0302,0.04524 v 0.0181 c 0,0.03167 0.009,0.04524 0.0302,0.04524 h 0.0754 v 0.481085 c 0,0.17494 0.11914,0.208119 0.19455,0.208119 0.0407,0 0.11009,-0.0045 0.11009,-0.04524 0,-0.01206 -0.0106,-0.07088 -0.0317,-0.07088 -0.0136,0 -0.0211,0.0075 -0.0648,0.0075 -0.0437,0 -0.0814,-0.02111 -0.0814,-0.1116 v -0.46902 h 0.12668 c 0.0211,0 0.0302,-0.01357 0.0302,-0.04524 v -0.0181 c 0,-0.03167 -0.009,-0.04524 -0.0302,-0.04524 h -0.12668 v -0.15835 c 0,-0.02111 -0.0136,-0.03318 -0.0452,-0.03318 z" />
      <path
         id="path8766"
         style="font-style:normal;font-variant:normal;font-weight:normal;font-stretch:normal;font-family:Asap;-inkscape-font-specification:Asap;stroke-width:0.03770261px"
         d="m 117.59022,30.027304 h -0.006 c -0.0422,0 -0.0603,0.01206 -0.0603,0.03318 v 1.070754 c 0,0.02111 0.0181,0.03318 0.0603,0.03318 h 0.006 c 0.0422,0 0.0603,-0.01206 0.0603,-0.03318 V 30.57927 c 0,0 0.0769,-0.105568 0.19003,-0.105568 0.10255,0 0.15382,0.05731 0.15382,0.146287 v 0.511247 c 0,0.02111 0.0181,0.03318 0.0603,0.03318 h 0.006 c 0.0422,0 0.0603,-0.01206 0.0603,-0.03318 v -0.523312 c 0,-0.205102 -0.14327,-0.244313 -0.23979,-0.244313 -0.0965,0 -0.17795,0.05128 -0.23074,0.104059 v -0.407188 c 0,-0.02111 -0.0181,-0.03318 -0.0603,-0.03318 z" />
      <path
         id="path8768"
         style="font-style:normal;font-variant:normal;font-weight:normal;font-stretch:normal;font-family:Asap;-inkscape-font-specification:Asap;stroke-width:0.03770261px"
         d="m 118.88637,30.369643 h -0.006 c -0.0422,0 -0.0603,0.01206 -0.0603,0.03318 v 0.551966 c -0.0498,0.06485 -0.12216,0.105567 -0.19002,0.105567 -0.098,0 -0.15383,-0.05429 -0.15383,-0.146286 v -0.511247 c 0,-0.02111 -0.0181,-0.03318 -0.0603,-0.03318 h -0.006 c -0.0422,0 -0.0603,0.01206 -0.0603,0.03318 v 0.523312 c 0,0.152318 0.092,0.244313 0.24582,0.244313 0.0845,0 0.17193,-0.04223 0.23527,-0.113108 0.009,0.04223 0.0166,0.105567 0.0528,0.105567 0.0196,0 0.0814,-0.006 0.0814,-0.03469 0,-0.0075 -0.0181,-0.06636 -0.0181,-0.190021 v -0.535377 c 0,-0.02111 -0.0181,-0.03318 -0.0603,-0.03318 z" />
      <path
         id="path8770"
         style="font-style:normal;font-variant:normal;font-weight:normal;font-stretch:normal;font-family:Asap;-inkscape-font-specification:Asap;stroke-width:0.03770261px"
         d="m 119.27039,30.027304 h -0.006 c -0.0422,0 -0.0603,0.01206 -0.0603,0.03318 v 1.070754 c 0,0.02111 0.0136,0.03318 0.0452,0.03318 h 0.006 c 0.0211,0 0.0347,-0.0045 0.0407,-0.0181 0.0121,-0.03016 0.0196,-0.05882 0.0241,-0.08898 0.0739,0.07691 0.15382,0.113108 0.23979,0.113108 0.18097,0 0.29257,-0.168908 0.29257,-0.404172 0,-0.260902 -0.12668,-0.402664 -0.30615,-0.402664 -0.0935,0 -0.15684,0.03167 -0.21566,0.07691 v -0.380042 c 0,-0.02111 -0.0181,-0.03318 -0.0603,-0.03318 z m 0.24733,0.447907 c 0.13422,0.003 0.20209,0.101043 0.20209,0.280507 0,0.194545 -0.0664,0.304637 -0.1855,0.304637 -0.0664,0 -0.14176,-0.0362 -0.2036,-0.104059 v -0.413221 c 0.0543,-0.04524 0.12216,-0.06786 0.18701,-0.06786 z" />
      <path
         id="path8772"
         style="font-style:normal;font-variant:normal;font-weight:normal;font-stretch:normal;font-family:Asap;-inkscape-font-specification:Asap;stroke-width:0.03770261px"
         d="m 120.09587,30.998523 h -0.0256 c -0.0422,0 -0.0603,0.01206 -0.0603,0.03318 v 0.09953 c 0,0.02111 0.0181,0.03318 0.0603,0.03318 h 0.0256 c 0.0422,0 0.0603,-0.01206 0.0603,-0.03318 v -0.09953 c 0,-0.02111 -0.0181,-0.03318 -0.0603,-0.03318 z" />
      <path
         id="path8774"
         style="font-style:normal;font-variant:normal;font-weight:normal;font-stretch:normal;font-family:Asap;-inkscape-font-specification:Asap;stroke-width:0.03770261px"
         d="m 120.44011,30.027304 h -0.0181 c -0.0422,0 -0.0603,0.01206 -0.0603,0.03318 v 0.08898 c 0,0.02111 0.0181,0.03318 0.0603,0.03318 h 0.0181 c 0.0422,0 0.0603,-0.01206 0.0603,-0.03318 v -0.08898 c 0,-0.02111 -0.0181,-0.03318 -0.0603,-0.03318 z m -0.006,0.342339 h -0.006 c -0.0422,0 -0.0603,0.01206 -0.0603,0.03318 v 0.728414 c 0,0.02111 0.0181,0.03318 0.0603,0.03318 h 0.006 c 0.0422,0 0.0603,-0.01206 0.0603,-0.03318 v -0.728414 c 0,-0.02111 -0.0181,-0.03318 -0.0603,-0.03318 z" />
      <path
         id="path8776"
         style="font-style:normal;font-variant:normal;font-weight:normal;font-stretch:normal;font-family:Asap;-inkscape-font-specification:Asap;stroke-width:0.03770261px"
         d="m 121.0639,30.363611 c -0.2247,0 -0.34988,0.146286 -0.34988,0.407188 0,0.259394 0.12216,0.399648 0.34988,0.399648 0.22471,0 0.34234,-0.138746 0.34234,-0.399648 0,-0.26241 -0.12065,-0.407188 -0.34234,-0.407188 z m -0.005,0.108583 c 0.14779,0 0.21566,0.09501 0.21566,0.295589 0,0.200578 -0.0679,0.29408 -0.21566,0.29408 -0.1478,0 -0.21264,-0.0935 -0.21264,-0.29408 0,-0.202086 0.0663,-0.295589 0.21264,-0.295589 z" />
      <path
         id="path8778"
         style="font-style:normal;font-variant:normal;font-weight:normal;font-stretch:normal;font-family:Asap;-inkscape-font-specification:Asap;stroke-width:0.03770261px"
         d="m 122.00399,30.101201 h -0.006 c -0.0256,0 -0.0422,0.01056 -0.0528,0.03469 l -0.46751,1.087343 c -0.003,0.0075 -0.005,0.01508 -0.005,0.02262 0,0.0181 0.0136,0.03016 0.0392,0.03016 h 0.006 c 0.0256,0 0.0392,-0.01056 0.0498,-0.03469 l 0.46751,-1.087343 c 0.003,-0.0075 0.005,-0.01508 0.005,-0.02262 0,-0.0181 -0.0106,-0.03016 -0.0362,-0.03016 z" />
      <path
         id="path8780"
         style="font-style:normal;font-variant:normal;font-weight:normal;font-stretch:normal;font-family:Asap;-inkscape-font-specification:Asap;stroke-width:0.03770261px"
         d="m 122.97392,30.363611 c -0.095,0 -0.18248,0.05731 -0.23979,0.125173 -0.0422,-0.102552 -0.14176,-0.125173 -0.21566,-0.125173 -0.0965,0 -0.17946,0.0558 -0.22923,0.113108 -0.009,-0.03921 -0.0166,-0.09953 -0.0528,-0.09953 -0.0196,0 -0.0814,0.006 -0.0814,0.03469 0,0.0075 0.0181,0.06636 0.0181,0.190021 v 0.529345 c 0,0.02111 0.0181,0.03318 0.0603,0.03318 h 0.006 c 0.0422,0 0.0603,-0.01206 0.0603,-0.03318 v -0.553474 c 0,0 0.0739,-0.10406 0.18399,-0.10406 0.0965,0 0.14478,0.05731 0.14478,0.146287 v 0.511247 c 0,0.02111 0.0181,0.03318 0.0603,0.03318 h 0.006 c 0.0422,0 0.0603,-0.01206 0.0603,-0.03318 v -0.521804 c 0,-0.009 0,-0.01961 -0.002,-0.03016 0.0241,-0.02865 0.0935,-0.105568 0.1855,-0.105568 0.0965,0 0.14478,0.05731 0.14478,0.146287 v 0.511247 c 0,0.02111 0.0181,0.03318 0.0603,0.03318 h 0.006 c 0.0422,0 0.0603,-0.01206 0.0603,-0.03318 v -0.523312 c 0,-0.205102 -0.14025,-0.244313 -0.23677,-0.244313 z" />
      <path
         id="path8782"
         style="font-style:normal;font-variant:normal;font-weight:normal;font-stretch:normal;font-family:Asap;-inkscape-font-specification:Asap;stroke-width:0.03770261px"
         d="m 123.83905,30.101201 h -0.006 c -0.0256,0 -0.0422,0.01056 -0.0528,0.03469 l -0.46751,1.087343 c -0.003,0.0075 -0.005,0.01508 -0.005,0.02262 0,0.0181 0.0136,0.03016 0.0392,0.03016 h 0.006 c 0.0256,0 0.0392,-0.01056 0.0498,-0.03469 l 0.46751,-1.087343 c 0.003,-0.0075 0.005,-0.01508 0.005,-0.02262 0,-0.0181 -0.0106,-0.03016 -0.0362,-0.03016 z" />
      <path
         id="path8784"
         style="font-style:normal;font-variant:normal;font-weight:normal;font-stretch:normal;font-family:Asap;-inkscape-font-specification:Asap;stroke-width:0.03770261px"
         d="m 124.26304,30.096676 c -0.092,0 -0.27146,0.04675 -0.27146,0.110092 0,0.02262 0.0332,0.0754 0.0483,0.0754 0.0256,0 0.089,-0.07691 0.22622,-0.07691 0.11612,0 0.18851,0.06032 0.18851,0.156843 0,0.06334 -0.008,0.0935 -0.10255,0.218675 l -0.38909,0.488626 c -0.005,0.0045 -0.006,0.01508 -0.006,0.02564 0,0.02865 0.0121,0.06636 0.0302,0.06636 h 0.57609 c 0.0211,0 0.0302,-0.01357 0.0302,-0.04524 v -0.01659 c 0,-0.03167 -0.009,-0.04524 -0.0302,-0.04524 h -0.43433 l 0.11009,-0.134222 c 0.30464,-0.372501 0.34536,-0.422269 0.34536,-0.567047 0,-0.158351 -0.12367,-0.256378 -0.32123,-0.256378 z" />
    </g>
  </g>
</svg>
