<?xml version="1.0" encoding="UTF-8" standalone="no"?>
<svg
   xmlns:dc="http://purl.org/dc/elements/1.1/"
   xmlns:cc="http://creativecommons.org/ns#"
   xmlns:rdf="http://www.w3.org/1999/02/22-rdf-syntax-ns#"
   xmlns:svg="http://www.w3.org/2000/svg"
   xmlns="http://www.w3.org/2000/svg"
   id="svg8305"
   version="1.1"
   viewBox="0 0 210 34"
   height="34mm"
   width="210mm">
  <defs
     id="defs8299" />
  <metadata
     id="metadata8302">
    <rdf:RDF>
      <cc:Work
         rdf:about="">
        <dc:format>image/svg+xml</dc:format>
        <dc:type
           rdf:resource="http://purl.org/dc/dcmitype/StillImage" />
        <dc:title></dc:title>
      </cc:Work>
    </rdf:RDF>
  </metadata>
  <g
     style="display:inline"
     transform="translate(0,-263)"
     id="layer1">
    <path
       id="rect20648"
       transform="matrix(0.26458333,0,0,0.26458333,0,263)"
       d="M 0 0 L 0 13.384766 L 715.12891 128.50391 L 793.70117 128.50391 L 793.70117 119.44727 L 51.681641 0 L 0 0 z "
       mask="none"
       style="display:inline;fill:#ff0000;fill-opacity:1;stroke:none;stroke-width:3.77952766;stroke-miterlimit:4;stroke-dasharray:none" />
    <path
       id="rect24452"
       transform="matrix(0.26458333,0,0,0.26458333,0,263)"
       d="M 740.30078 0 L 0 120.33789 L 0 128.50391 L 83.3125 128.50391 L 793.70117 13.029297 L 793.70117 0 L 740.30078 0 z "
       style="fill:#ff0000;fill-opacity:1;stroke:none;stroke-width:2.53343606;stroke-miterlimit:4;stroke-dasharray:none" />
    <g
       style="fill:#000000;stroke:none"
       transform="matrix(0.00443518,0,0,-0.00443518,105.40153,295.33065)"
       id="g4785">
      <path
         d="m 800,5100 v -700 h 700 700 v 700 700 H 1500 800 Z m 1200,0 v -500 h -500 -500 v 500 500 h 500 500 z"
         id="path4757" />
      <path
         d="m 1200,5100 v -300 h 300 300 v 300 300 h -300 -300 z"
         id="path4759" />
      <path
         d="m 2600,5700 v -100 h -100 -100 v -200 -200 h 100 100 v -100 -100 h -100 -100 v -400 -400 h -200 -200 v -100 -100 h 100 100 v -100 -100 h -100 -100 v -100 -100 h -100 -100 v -300 -300 h -100 -100 v 400 400 h 100 100 v 100 100 h -100 -100 v 100 100 h -100 -100 v -100 -100 h -100 -100 v 100 100 H 1000 800 v -300 -300 h 100 100 V 3500 3400 H 900 800 v -100 -100 h 100 100 v 100 100 h 100 100 v 200 200 h 100 100 v -300 -300 h -100 -100 v -200 -200 h -100 -100 v 100 100 H 900 800 v -100 -100 h 100 100 V 2700 2600 H 900 800 v -100 -100 h 200 200 v 200 200 h 100 100 v -200 -200 h 500 500 v -200 -200 h 100 100 v 300 300 h 200 200 v -100 -100 h -100 -100 v -200 -200 h 100 100 v -100 -100 h 100 100 v -200 -200 h 100 100 v 100 100 h 200 200 v -200 -200 h 100 100 V 1000 800 h 400 400 v 100 100 h -300 -300 v 100 100 h -100 -100 v 200 200 h 300 300 v -200 -200 h 200 200 v -100 -100 h 100 100 v 100 100 h 100 100 v 200 200 h 100 100 v 100 100 h 100 100 v 300 300 h -100 -100 v -100 -100 h -100 -100 v -100 -100 h -100 -100 v 200 200 h 100 100 v 100 100 h 100 100 v 100 100 h 100 100 v 300 300 h -200 -200 v -100 -100 h -100 -100 v 100 100 h -100 -100 v 100 100 h -100 -100 v 100 100 h -100 -100 v 100 100 h 200 200 v 100 100 h -300 -300 v -100 -100 h -100 -100 v 600 600 h -300 -300 v -100 -100 h -100 -100 v -200 -200 h -100 -100 v 100 100 h -100 -100 v -100 -100 h -100 -100 v 100 100 h -100 -100 v 100 100 h 300 300 v 100 100 h 100 100 v 200 200 h 200 200 v -100 -100 h 200 200 v 100 100 h -100 -100 v 100 100 h -400 -400 v -100 -100 h -100 -100 v -100 -100 h -200 -200 v 100 100 h 100 100 v 100 100 h -100 -100 z m 1200,-900 v -200 h 100 100 v -100 -100 h -100 -100 v 100 100 h -100 -100 v -200 -200 h -100 -100 v 200 200 h 100 100 v 200 200 h 100 100 z M 2800,4500 v -100 h 100 100 v 100 100 h 100 100 v -300 -300 h 100 100 v -100 -100 h 100 100 v 100 100 h 200 200 v -400 -400 h 100 100 v 100 100 h 100 100 v 200 200 h 100 100 v -200 -200 h -100 -100 v -200 -200 h -200 -200 v -200 -200 h -100 -100 v -100 -100 h -100 -100 v -300 -300 h -100 -100 v 100 100 h -200 -200 v 100 100 h 100 100 v 100 100 h 100 100 v 100 100 h 100 100 v 100 100 h 100 100 v 100 100 h -100 -100 v 100 100 h 100 100 v 300 300 h -100 -100 v -100 -100 h -100 -100 v -400 -400 h -100 -100 v -100 -100 h -100 -100 v 100 100 h 100 100 v 100 100 h -100 -100 v 100 100 h -100 -100 v -100 -100 h -100 -100 v -200 -200 h -300 -300 v 100 100 h 100 100 v 100 100 h -100 -100 v 100 100 h 100 100 v -100 -100 h 200 200 v 300 300 h -100 -100 v -100 -100 h -200 -200 v 100 100 h 100 100 v 100 100 h 200 200 v 100 100 h -100 -100 v 100 100 h 200 200 v 100 100 h -100 -100 v 100 100 h 100 100 z M 1200,3900 v -100 h -100 -100 v 100 100 h 100 100 z m 400,0 v -100 h -100 -100 v 100 100 h 100 100 z m 3400,-700 v -200 h 100 100 v -100 -100 h 100 100 v 200 200 h 100 100 v -200 -200 h -100 -100 v -100 -100 h -200 -200 v 200 200 h -200 -200 v 100 100 h 100 100 v 100 100 h 100 100 z M 1600,2900 v -100 h 100 100 v -100 -100 h -100 -100 v 100 100 h -100 -100 v 100 100 h 100 100 z m 3200,-200 v -100 h -100 -100 v 100 100 h 100 100 z m 0,-600 v -300 h -300 -300 v 300 300 h 300 300 z m 800,-200 v -100 h -100 -100 v -100 -100 h -100 -100 v 100 100 h 100 100 v 100 100 h 100 100 z M 4000,1700 v -100 h -100 -100 v 100 100 h 100 100 z m 1200,-400 v -100 h -100 -100 v 100 100 h 100 100 z"
         id="path4761" />
      <path
         d="m 2800,4000 v -200 h -100 -100 v -100 -100 h 200 200 v -100 -100 h 100 100 v 100 100 h 100 100 v 100 100 h -100 -100 v 100 100 h -100 -100 v 100 100 h -100 -100 z m 400,-300 v -100 h -100 -100 v 100 100 h 100 100 z"
         id="path4763" />
      <path
         d="m 4400,2100 v -100 h 100 100 v 100 100 h -100 -100 z"
         id="path4765" />
      <path
         d="m 4400,5100 v -700 h 700 700 v 700 700 h -700 -700 z m 1200,0 v -500 h -500 -500 v 500 500 h 500 500 z"
         id="path4767" />
      <path
         d="m 4800,5100 v -300 h 300 300 v 300 300 h -300 -300 z"
         id="path4769" />
      <path
         d="m 5200,4100 v -100 h 200 200 v -100 -100 h -100 -100 v -100 -100 h 200 200 v 200 200 h -100 -100 v 100 100 h -200 -200 z"
         id="path4771" />
      <path
         d="M 800,1500 V 800 h 700 700 v 700 700 H 1500 800 Z m 1200,0 v -500 h -500 -500 v 500 500 h 500 500 z"
         id="path4773" />
      <path
         d="m 1200,1500 v -300 h 300 300 v 300 300 h -300 -300 z"
         id="path4775" />
      <path
         d="m 2400,1500 v -100 h 200 200 v -200 -200 h 100 100 V 900 800 h 400 400 v 100 100 h -100 -100 v 100 100 h -300 -300 v 200 200 h -300 -300 z"
         id="path4777" />
      <path
         d="m 5600,1300 v -100 h 100 100 v 100 100 h -100 -100 z"
         id="path4779" />
      <path
         d="M 2400,1000 V 800 h 100 100 v 200 200 h -100 -100 z"
         id="path4781" />
      <path
         d="M 5400,900 V 800 h 200 200 v 100 100 h -200 -200 z"
         id="path4783" />
    </g>
  </g>
  <g
     style="display:inline"
     id="layer2">
    <g
       transform="matrix(0.9560474,0,0,0.9560474,6.5662118,-249.88258)"
       id="g11892"
       style="display:inline">
      <path
         id="path11863"
         style="font-style:normal;font-variant:normal;font-weight:bold;font-stretch:normal;font-size:medium;line-height:125%;font-family:asap;-inkscape-font-specification:'asap Bold';letter-spacing:0px;word-spacing:0px;fill:#000000;fill-opacity:1;stroke:none;stroke-width:0.66443563px;stroke-linecap:butt;stroke-linejoin:miter;stroke-opacity:1"
         d="m 24.069794,269.97226 h -1.382026 c -0.770745,0 -1.382026,0.18604 -1.674378,0.71759 l -4.491585,7.86691 -0.239197,0.45182 -0.212619,-0.37208 -4.465007,-7.94665 C 11.31263,270.1583 10.701349,269.97226 9.9306039,269.97226 H 8.5220004 c -1.1162519,0 -1.5946455,0.29235 -1.5946455,0.85047 v 17.00956 c 0,0.55812 0.4783936,0.85047 1.5946455,0.85047 h 0.7707453 c 1.1162523,0 1.5946453,-0.29235 1.5946453,-0.85047 v -11.00306 l 0.10631,-0.0266 3.853727,6.88356 c 0.239196,0.31893 0.558125,0.50497 1.063097,0.50497 h 0.770745 c 0.504971,0 0.8239,-0.18604 1.063097,-0.50497 l 3.853726,-6.88356 0.10631,0.0266 v 11.00306 c 0,0.55812 0.478394,0.85047 1.594646,0.85047 h 0.770745 c 1.116252,0 1.594645,-0.29235 1.594645,-0.85047 v -17.00956 c 0,-0.55812 -0.478393,-0.85047 -1.594645,-0.85047 z" />
      <path
         id="path11865"
         style="font-style:normal;font-variant:normal;font-weight:bold;font-stretch:normal;font-size:medium;line-height:125%;font-family:asap;-inkscape-font-specification:'asap Bold';letter-spacing:0px;word-spacing:0px;fill:#000000;fill-opacity:1;stroke:none;stroke-width:0.66443563px;stroke-linecap:butt;stroke-linejoin:miter;stroke-opacity:1"
         d="m 35.09278,274.517 c -3.800571,0 -6.458314,2.01988 -6.458314,7.25563 0,4.27897 2.126194,7.0696 6.936708,7.0696 1.488336,0 4.783937,-0.58471 4.783937,-1.91358 0,-0.53155 -0.797323,-2.01988 -1.382027,-2.01988 -0.372084,0 -1.54149,0.8239 -3.215868,0.8239 -1.727533,0 -2.870362,-0.66444 -3.056404,-2.79063 h 6.777243 c 0.345507,0 1.355449,-1.11625 1.355449,-1.56807 0,-3.69426 -1.568068,-6.85697 -5.740724,-6.85697 z m 0,3.10955 c 1.328872,0 1.913575,1.14283 1.913575,2.68432 h -4.305543 c 0.318929,-2.04646 1.275717,-2.68432 2.391968,-2.68432 z" />
      <path
         id="path11867"
         style="font-style:normal;font-variant:normal;font-weight:bold;font-stretch:normal;font-size:medium;line-height:125%;font-family:asap;-inkscape-font-specification:'asap Bold';letter-spacing:0px;word-spacing:0px;fill:#000000;fill-opacity:1;stroke:none;stroke-width:0.66443563px;stroke-linecap:butt;stroke-linejoin:miter;stroke-opacity:1"
         d="m 51.173783,274.517 c -1.727532,0 -3.189291,1.00994 -3.960036,2.01988 -0.159465,-0.66444 -0.212619,-1.72753 -1.063097,-1.72753 -0.664436,0 -2.976672,0.21262 -2.976672,0.85047 0,0.53155 0.318929,1.08968 0.318929,3.74742 v 8.42505 c 0,0.55812 0.478394,0.85047 1.594646,0.85047 h 0.744168 c 1.116252,0 1.594645,-0.29235 1.594645,-0.85047 v -8.53136 c 0.318929,-0.61128 1.03652,-1.54149 2.126194,-1.54149 1.169407,0 1.594646,0.61128 1.594646,1.6478 v 8.42505 c 0,0.55812 0.478393,0.85047 1.594645,0.85047 h 0.744168 c 1.116252,0 1.594646,-0.29235 1.594646,-0.85047 v -9.00975 c 0,-2.9501 -1.249139,-4.30554 -3.906882,-4.30554 z" />
      <path
         id="path11869"
         style="font-style:normal;font-variant:normal;font-weight:bold;font-stretch:normal;font-size:medium;line-height:125%;font-family:asap;-inkscape-font-specification:'asap Bold';letter-spacing:0px;word-spacing:0px;fill:#000000;fill-opacity:1;stroke:none;stroke-width:0.66443563px;stroke-linecap:butt;stroke-linejoin:miter;stroke-opacity:1"
         d="m 65.967858,274.517 c -1.727532,0 -3.189291,1.00994 -3.960036,2.01988 -0.159465,-0.66444 -0.212619,-1.72753 -1.063097,-1.72753 -0.664436,0 -2.976672,0.21262 -2.976672,0.85047 0,0.53155 0.318929,1.08968 0.318929,3.74742 v 8.42505 c 0,0.55812 0.478394,0.85047 1.594646,0.85047 h 0.744168 c 1.116252,0 1.594645,-0.29235 1.594645,-0.85047 v -8.53136 c 0.318929,-0.61128 1.03652,-1.54149 2.126194,-1.54149 1.169407,0 1.594646,0.61128 1.594646,1.6478 v 8.42505 c 0,0.55812 0.478393,0.85047 1.594645,0.85047 h 0.744168 c 1.116252,0 1.594646,-0.29235 1.594646,-0.85047 v -9.00975 c 0,-2.9501 -1.249139,-4.30554 -3.906882,-4.30554 z" />
      <path
         id="path11871"
         style="font-style:normal;font-variant:normal;font-weight:bold;font-stretch:normal;font-size:medium;line-height:125%;font-family:asap;-inkscape-font-specification:'asap Bold';letter-spacing:0px;word-spacing:0px;fill:#000000;fill-opacity:1;stroke:none;stroke-width:0.66443563px;stroke-linecap:butt;stroke-linejoin:miter;stroke-opacity:1"
         d="m 82.516043,274.67646 h -0.637858 c -0.770745,0 -1.355449,0.13289 -1.488336,0.55813 l -1.568068,4.91682 c -0.186042,0.5847 -0.504971,2.07304 -0.744168,3.21587 h -0.106309 c -0.239197,-1.14283 -0.558126,-2.60459 -0.744168,-3.21587 l -1.568068,-4.91682 c -0.132887,-0.42524 -0.717591,-0.55813 -1.488336,-0.55813 h -0.850478 c -1.116252,0 -1.621223,0.21262 -1.621223,0.5847 0,0.13289 0.05315,0.29236 0.10631,0.4784 l 4.385275,12.89005 -1.674378,4.43843 c -0.07973,0.18604 -0.106309,0.3455 -0.106309,0.47839 0,0.34551 0.504971,0.55813 1.594645,0.55813 h 0.451816 c 0.770746,0 1.328872,-0.13289 1.488336,-0.55813 l 6.086231,-17.80687 c 0.05315,-0.18604 0.07973,-0.34551 0.07973,-0.4784 0,-0.37208 -0.478394,-0.5847 -1.594646,-0.5847 z" />
      <path
         id="path11873"
         style="font-style:normal;font-variant:normal;font-weight:bold;font-stretch:normal;font-size:medium;line-height:125%;font-family:asap;-inkscape-font-specification:'asap Bold';letter-spacing:0px;word-spacing:0px;fill:#000000;fill-opacity:1;stroke:none;stroke-width:0.66443563px;stroke-linecap:butt;stroke-linejoin:miter;stroke-opacity:1"
         d="m 88.109761,268.59023 h -0.744168 c -1.116251,0 -1.594645,0.29235 -1.594645,0.85048 v 2.15277 c 0,0.55812 0.478394,0.85048 1.594645,0.85048 h 0.744168 c 1.116252,0 1.594646,-0.29236 1.594646,-0.85048 v -2.15277 c 0,-0.55813 -0.478394,-0.85048 -1.594646,-0.85048 z m 0,6.08623 h -0.744168 c -1.116251,0 -1.594645,0.29235 -1.594645,0.85048 v 12.30535 c 0,0.55812 0.478394,0.85047 1.594645,0.85047 h 0.744168 c 1.116252,0 1.594646,-0.29235 1.594646,-0.85047 v -12.30535 c 0,-0.55813 -0.478394,-0.85048 -1.594646,-0.85048 z" />
      <path
         id="path11875"
         style="font-style:normal;font-variant:normal;font-weight:bold;font-stretch:normal;font-size:medium;line-height:125%;font-family:asap;-inkscape-font-specification:'asap Bold';letter-spacing:0px;word-spacing:0px;fill:#000000;fill-opacity:1;stroke:none;stroke-width:0.66443563px;stroke-linecap:butt;stroke-linejoin:miter;stroke-opacity:1"
         d="m 97.109537,269.81279 c -2.073039,0 -4.996556,0.5847 -4.996556,2.15277 0,0.55813 0.93021,2.17935 1.674378,2.17935 0.372084,0 1.435181,-0.8239 2.976672,-0.8239 1.355448,0 1.966729,0.55813 1.966729,1.48834 0,0.87705 -1.195984,1.91357 -2.312236,3.21587 -0.93021,1.11625 -1.807265,2.39196 -1.807265,3.93345 0,0.55813 0.372084,0.77075 1.302294,0.77075 h 0.611281 c 0.877055,0 1.249139,-0.15946 1.408603,-0.71759 0.478394,-2.55143 4.943403,-3.40191 4.943403,-7.46826 0,-2.92351 -2.20593,-4.73078 -5.767303,-4.73078 z m -0.478394,14.72389 h -0.850477 c -1.116252,0 -1.594646,0.29236 -1.594646,0.85048 v 2.44513 c 0,0.55812 0.478394,0.85047 1.594646,0.85047 h 0.850477 c 1.116252,0 1.594646,-0.29235 1.594646,-0.85047 v -2.44513 c 0,-0.55812 -0.478394,-0.85048 -1.594646,-0.85048 z" />
    </g>
    <g
       transform="matrix(0.94211978,0,0,0.94211978,6.6933216,-3.8521168)"
       id="g11254"
       style="display:inline">
      <path
         id="path4818"
         style="font-style:normal;font-variant:normal;font-weight:normal;font-stretch:normal;font-size:medium;line-height:125%;font-family:Asap;-inkscape-font-specification:Asap;letter-spacing:0px;word-spacing:0px;fill:#000000;fill-opacity:1;stroke:none;stroke-width:0.6654256px;stroke-linecap:butt;stroke-linejoin:miter;stroke-opacity:1"
         d="m 142.16055,12.713684 c -1.62363,0 -4.79107,0.825124 -4.79107,1.943033 0,0.399255 0.58557,1.330864 0.85175,1.330864 0.45248,0 1.57039,-1.357464 3.99256,-1.357464 2.04949,0 3.32711,1.064666 3.32711,2.768142 0,1.117923 -0.13304,1.650276 -1.80994,3.859493 l -6.86719,8.62391 c -0.08,0.07998 -0.10639,0.26617 -0.10639,0.452483 0,0.50574 0.21302,1.171151 0.53235,1.171151 h 10.1677 c 0.37264,0 0.53235,-0.239681 0.53235,-0.79851 v -0.292798 c 0,-0.558954 -0.15971,-0.79851 -0.53235,-0.79851 h -7.66571 l 1.94306,-2.368902 c 5.37663,-6.57442 6.09529,-7.452773 6.09529,-10.008016 0,-2.794785 -2.18258,-4.524876 -5.66942,-4.524876 z" />
      <path
         id="path4820"
         style="font-style:normal;font-variant:normal;font-weight:normal;font-stretch:normal;font-size:medium;line-height:125%;font-family:Asap;-inkscape-font-specification:Asap;letter-spacing:0px;word-spacing:0px;fill:#000000;fill-opacity:1;stroke:none;stroke-width:0.6654256px;stroke-linecap:butt;stroke-linejoin:miter;stroke-opacity:1"
         d="m 156.31063,17.60383 h -0.18636 c -0.55896,0 -0.79851,0.159699 -0.79851,0.532326 v 4.764459 h -4.76443 c -0.37265,0 -0.53235,0.346013 -0.53235,0.904967 v 0.186369 c 0,0.558954 0.1597,0.692025 0.53235,0.692025 h 4.76443 v 4.764446 c 0,0.372654 0.23942,0.532354 0.79851,0.532354 h 0.18636 c 0.55896,0 0.79851,-0.1597 0.79851,-0.532354 v -4.764446 h 4.73782 c 0.37265,0 0.53235,-0.23943 0.53235,-0.79851 v -0.186369 c 0,-0.558954 -0.1597,-0.79851 -0.53235,-0.79851 h -4.73782 v -4.764459 c 0,-0.372613 -0.23968,-0.532326 -0.79851,-0.532326 z" />
      <path
         id="path4822"
         style="font-style:normal;font-variant:normal;font-weight:normal;font-stretch:normal;font-size:medium;line-height:125%;font-family:Asap;-inkscape-font-specification:Asap;letter-spacing:0px;word-spacing:0px;fill:#000000;fill-opacity:1;stroke:none;stroke-width:0.6654256px;stroke-linecap:butt;stroke-linejoin:miter;stroke-opacity:1"
         d="m 169.05442,12.713684 c -1.62363,0 -4.79107,0.825124 -4.79107,1.943033 0,0.399255 0.5856,1.330864 0.85176,1.330864 0.4525,0 1.57041,-1.357464 3.99255,-1.357464 2.04952,0 3.32714,1.064666 3.32714,2.768142 0,1.117923 -0.13304,1.650276 -1.80996,3.859493 l -6.8672,8.62391 c -0.0797,0.07998 -0.10639,0.26617 -0.10639,0.452483 0,0.50574 0.21302,1.171151 0.53233,1.171151 h 10.16772 c 0.37262,0 0.53233,-0.239681 0.53233,-0.79851 v -0.292798 c 0,-0.558954 -0.15971,-0.79851 -0.53233,-0.79851 h -7.66571 l 1.94304,-2.368902 c 5.37663,-6.57442 6.09529,-7.452773 6.09529,-10.008016 0,-2.794785 -2.18258,-4.524876 -5.66943,-4.524876 z" />
      <path
         id="path4824"
         style="font-style:normal;font-variant:normal;font-weight:normal;font-stretch:normal;font-size:medium;line-height:125%;font-family:Asap;-inkscape-font-specification:Asap;letter-spacing:0px;word-spacing:0px;fill:#000000;fill-opacity:1;stroke:none;stroke-width:0.6654256px;stroke-linecap:butt;stroke-linejoin:miter;stroke-opacity:1"
         d="m 187.80449,20.93094 h -10.22412 c -0.50572,0 -0.79851,0.266198 -0.79851,0.79851 v 0.18637 c 0,0.505711 0.29279,0.79851 0.79851,0.79851 h 10.22412 c 0.53232,0 0.79851,-0.292799 0.79851,-0.79851 v -0.18637 c 0,-0.532312 -0.26619,-0.79851 -0.79851,-0.79851 z m 0,4.338605 h -10.22412 c -0.50572,0 -0.79851,0.266156 -0.79851,0.798496 v 0.213025 c 0,0.505739 0.29279,0.79851 0.79851,0.79851 h 10.22412 c 0.53232,0 0.79851,-0.292771 0.79851,-0.79851 v -0.213025 c 0,-0.53234 -0.26619,-0.798496 -0.79851,-0.798496 z" />
      <path
         id="path4826"
         style="font-style:normal;font-variant:normal;font-weight:normal;font-stretch:normal;font-size:medium;line-height:125%;font-family:Asap;-inkscape-font-specification:Asap;letter-spacing:0px;word-spacing:0px;fill:#000000;fill-opacity:1;stroke:none;stroke-width:0.6654256px;stroke-linecap:butt;stroke-linejoin:miter;stroke-opacity:1"
         d="m 201.04454,12.820141 h -0.42589 c -0.37262,0 -0.71866,0.133071 -0.90497,0.372655 l -8.75701,12.217205 c -0.0533,0.05337 -0.0533,0.159713 -0.0533,0.29277 0,0.505754 0.34602,1.357478 0.63881,1.357478 h 8.09157 v 3.912693 c 0,0.372655 0.23943,0.585596 0.79851,0.585596 h 0.6122 c 0.55896,0 0.79851,-0.213011 0.79851,-0.585596 v -3.912693 h 1.78333 c 0.37265,0 0.53236,-0.23943 0.53236,-0.79851 v -0.319412 c 0,-0.558954 -0.15971,-0.79851 -0.53236,-0.79851 h -1.78333 V 13.40571 c 0,-0.372613 -0.23943,-0.585569 -0.79851,-0.585569 z m -1.51717,3.80625 0.10639,0.05337 v 8.464225 h -6.09529 z" />
    </g>
  </g>
</svg>
