<?xml version="1.0" encoding="UTF-8" standalone="no"?>
<svg
   xmlns:dc="http://purl.org/dc/elements/1.1/"
   xmlns:cc="http://creativecommons.org/ns#"
   xmlns:rdf="http://www.w3.org/1999/02/22-rdf-syntax-ns#"
   xmlns:svg="http://www.w3.org/2000/svg"
   xmlns="http://www.w3.org/2000/svg"
   id="svg4600"
   version="1.1"
   viewBox="0 0 52 17"
   height="17mm"
   width="52mm">
  <defs
     id="defs4594" />
  <metadata
     id="metadata4597">
    <rdf:RDF>
      <cc:Work
         rdf:about="">
        <dc:format>image/svg+xml</dc:format>
        <dc:type
           rdf:resource="http://purl.org/dc/dcmitype/StillImage" />
        <dc:title></dc:title>
      </cc:Work>
    </rdf:RDF>
  </metadata>
  <g
     transform="translate(0,-280)"
     id="layer1">
    <g
       id="g4597">
      <path
         id="path4818"
         style="font-style:normal;font-variant:normal;font-weight:normal;font-stretch:normal;font-size:medium;line-height:125%;font-family:Asap;-inkscape-font-specification:Asap;letter-spacing:0px;word-spacing:0px;fill:#707070;fill-opacity:1;stroke:none;stroke-width:0.47755045px;stroke-linecap:butt;stroke-linejoin:miter;stroke-opacity:1"
         d="m 5.4762868,281.66262 c -1.1652171,0 -3.4383633,0.59216 -3.4383633,1.39444 0,0.28653 0.4202384,0.95511 0.6112706,0.95511 0.3247221,0 1.127007,-0.9742 2.8653028,-0.9742 1.4708435,0 2.3877404,0.76407 2.3877404,1.98659 0,0.80229 -0.09548,1.18434 -1.2989253,2.76981 l -4.928321,6.18905 c -0.057396,0.0574 -0.076348,0.19102 -0.076348,0.32473 0,0.36295 0.1528765,0.84049 0.3820465,0.84049 h 7.2969654 c 0.2674344,0 0.3820465,-0.17201 0.3820465,-0.57306 v -0.21013 c 0,-0.40114 -0.1146121,-0.57306 -0.3820465,-0.57306 H 3.7762733 l 1.3944597,-1.70007 c 3.8586017,-4.71821 4.3743563,-5.34857 4.3743563,-7.18237 0,-2.00571 -1.5663597,-3.24733 -4.0687303,-3.24733 z" />
      <path
         id="path4820"
         style="font-style:normal;font-variant:normal;font-weight:normal;font-stretch:normal;font-size:medium;line-height:125%;font-family:Asap;-inkscape-font-specification:Asap;letter-spacing:0px;word-spacing:0px;fill:#707070;fill-opacity:1;stroke:none;stroke-width:0.47755045px;stroke-linecap:butt;stroke-linejoin:miter;stroke-opacity:1"
         d="m 15.631259,285.17209 h -0.133744 c -0.401142,0 -0.57306,0.11461 -0.57306,0.38203 v 3.41927 h -3.41925 c -0.267434,0 -0.382046,0.24832 -0.382046,0.64946 v 0.13375 c 0,0.40114 0.114612,0.49664 0.382046,0.49664 h 3.41925 v 3.41926 c 0,0.26744 0.171827,0.38205 0.57306,0.38205 h 0.133744 c 0.401143,0 0.573061,-0.11461 0.573061,-0.38205 v -3.41926 h 3.400154 c 0.267434,0 0.382046,-0.17183 0.382046,-0.57306 v -0.13375 c 0,-0.40114 -0.114612,-0.57306 -0.382046,-0.57306 H 16.20432 v -3.41927 c 0,-0.26741 -0.172009,-0.38203 -0.573061,-0.38203 z" />
      <path
         id="path4822"
         style="font-style:normal;font-variant:normal;font-weight:normal;font-stretch:normal;font-size:medium;line-height:125%;font-family:Asap;-inkscape-font-specification:Asap;letter-spacing:0px;word-spacing:0px;fill:#707070;fill-opacity:1;stroke:none;stroke-width:0.47755045px;stroke-linecap:butt;stroke-linejoin:miter;stroke-opacity:1"
         d="m 24.776991,281.66262 c -1.165218,0 -3.438365,0.59216 -3.438365,1.39444 0,0.28653 0.420257,0.95511 0.611271,0.95511 0.324741,0 1.127025,-0.9742 2.865304,-0.9742 1.470861,0 2.387759,0.76407 2.387759,1.98659 0,0.80229 -0.09548,1.18434 -1.298943,2.76981 l -4.928323,6.18905 c -0.05722,0.0574 -0.07635,0.19102 -0.07635,0.32473 0,0.36295 0.152876,0.84049 0.382029,0.84049 h 7.296986 c 0.267416,0 0.382029,-0.17201 0.382029,-0.57306 v -0.21013 c 0,-0.40114 -0.114613,-0.57306 -0.382029,-0.57306 h -5.501384 l 1.39444,-1.70007 c 3.858606,-4.71821 4.37436,-5.34857 4.37436,-7.18237 0,-2.00571 -1.566359,-3.24733 -4.068731,-3.24733 z" />
      <path
         id="path4824"
         style="font-style:normal;font-variant:normal;font-weight:normal;font-stretch:normal;font-size:medium;line-height:125%;font-family:Asap;-inkscape-font-specification:Asap;letter-spacing:0px;word-spacing:0px;fill:#707070;fill-opacity:1;stroke:none;stroke-width:0.47755045px;stroke-linecap:butt;stroke-linejoin:miter;stroke-opacity:1"
         d="m 38.992722,287.55983 h -7.71722 c -0.362933,0 -0.573061,0.19104 -0.573061,0.57306 v 0.13375 c 0,0.36293 0.210128,0.57306 0.573061,0.57306 h 7.71722 c 0.382029,0 0.573062,-0.21013 0.573062,-0.57306 v -0.13375 c 0,-0.38202 -0.191033,-0.57306 -0.573062,-0.57306 z m 0,3.11365 h -7.71722 c -0.362933,0 -0.573061,0.19101 -0.573061,0.57305 v 0.15288 c 0,0.36295 0.210128,0.57306 0.573061,0.57306 h 7.71722 c 0.382029,0 0.573062,-0.21011 0.573062,-0.57306 v -0.15288 c 0,-0.38204 -0.191033,-0.57305 -0.573062,-0.57305 z" />
      <path
         id="path4826"
         style="font-style:normal;font-variant:normal;font-weight:normal;font-stretch:normal;font-size:medium;line-height:125%;font-family:Asap;-inkscape-font-specification:Asap;letter-spacing:0px;word-spacing:0px;fill:#707070;fill-opacity:1;stroke:none;stroke-width:0.47755045px;stroke-linecap:butt;stroke-linejoin:miter;stroke-opacity:1"
         d="m 48.114839,281.73902 h -0.305646 c -0.267416,0 -0.515754,0.0955 -0.649462,0.26744 l -6.284572,8.76782 c -0.03826,0.0383 -0.03826,0.11462 -0.03826,0.21011 0,0.36296 0.24832,0.97421 0.458448,0.97421 h 5.807008 v 2.80799 c 0,0.26744 0.171829,0.42026 0.573062,0.42026 h 0.439351 c 0.401144,0 0.573062,-0.15287 0.573062,-0.42026 v -2.80799 h 1.279828 c 0.267436,0 0.382049,-0.17183 0.382049,-0.57306 v -0.22923 c 0,-0.40114 -0.114613,-0.57306 -0.382049,-0.57306 H 48.68783 v -8.42399 c 0,-0.26741 -0.171829,-0.42024 -0.573062,-0.42024 z m -1.088815,2.7316 0.07635,0.0383 v 6.07445 h -4.374357 z" />
    </g>
  </g>
</svg>
