<?xml version="1.0" encoding="UTF-8" standalone="no"?>
<svg
   xmlns:dc="http://purl.org/dc/elements/1.1/"
   xmlns:cc="http://creativecommons.org/ns#"
   xmlns:rdf="http://www.w3.org/1999/02/22-rdf-syntax-ns#"
   xmlns:svg="http://www.w3.org/2000/svg"
   xmlns="http://www.w3.org/2000/svg"
   id="svg8305"
   version="1.1"
   viewBox="0 0 210 34"
   height="34mm"
   width="210mm">
  <defs
     id="defs8299" />
  <metadata
     id="metadata8302">
    <rdf:RDF>
      <cc:Work
         rdf:about="">
        <dc:format>image/svg+xml</dc:format>
        <dc:type
           rdf:resource="http://purl.org/dc/dcmitype/StillImage" />
        <dc:title></dc:title>
      </cc:Work>
    </rdf:RDF>
  </metadata>
  <g
     style="display:inline"
     transform="translate(0,-263)"
     id="layer1" />
  <g
     style="display:inline"
     id="layer2">
    <g
       transform="translate(0.5669643,-262.7381)"
       id="g11892"
       style="display:inline">
      <path
         id="path11863"
         style="font-style:normal;font-variant:normal;font-weight:bold;font-stretch:normal;font-size:medium;line-height:125%;font-family:asap;-inkscape-font-specification:'asap Bold';letter-spacing:0px;word-spacing:0px;fill:#000000;fill-opacity:1;stroke:none;stroke-width:0.66443563px;stroke-linecap:butt;stroke-linejoin:miter;stroke-opacity:1"
         d="m 24.069794,269.97226 h -1.382026 c -0.770745,0 -1.382026,0.18604 -1.674378,0.71759 l -4.491585,7.86691 -0.239197,0.45182 -0.212619,-0.37208 -4.465007,-7.94665 C 11.31263,270.1583 10.701349,269.97226 9.9306039,269.97226 H 8.5220004 c -1.1162519,0 -1.5946455,0.29235 -1.5946455,0.85047 v 17.00956 c 0,0.55812 0.4783936,0.85047 1.5946455,0.85047 h 0.7707453 c 1.1162523,0 1.5946453,-0.29235 1.5946453,-0.85047 v -11.00306 l 0.10631,-0.0266 3.853727,6.88356 c 0.239196,0.31893 0.558125,0.50497 1.063097,0.50497 h 0.770745 c 0.504971,0 0.8239,-0.18604 1.063097,-0.50497 l 3.853726,-6.88356 0.10631,0.0266 v 11.00306 c 0,0.55812 0.478394,0.85047 1.594646,0.85047 h 0.770745 c 1.116252,0 1.594645,-0.29235 1.594645,-0.85047 v -17.00956 c 0,-0.55812 -0.478393,-0.85047 -1.594645,-0.85047 z" />
      <path
         id="path11865"
         style="font-style:normal;font-variant:normal;font-weight:bold;font-stretch:normal;font-size:medium;line-height:125%;font-family:asap;-inkscape-font-specification:'asap Bold';letter-spacing:0px;word-spacing:0px;fill:#000000;fill-opacity:1;stroke:none;stroke-width:0.66443563px;stroke-linecap:butt;stroke-linejoin:miter;stroke-opacity:1"
         d="m 35.09278,274.517 c -3.800571,0 -6.458314,2.01988 -6.458314,7.25563 0,4.27897 2.126194,7.0696 6.936708,7.0696 1.488336,0 4.783937,-0.58471 4.783937,-1.91358 0,-0.53155 -0.797323,-2.01988 -1.382027,-2.01988 -0.372084,0 -1.54149,0.8239 -3.215868,0.8239 -1.727533,0 -2.870362,-0.66444 -3.056404,-2.79063 h 6.777243 c 0.345507,0 1.355449,-1.11625 1.355449,-1.56807 0,-3.69426 -1.568068,-6.85697 -5.740724,-6.85697 z m 0,3.10955 c 1.328872,0 1.913575,1.14283 1.913575,2.68432 h -4.305543 c 0.318929,-2.04646 1.275717,-2.68432 2.391968,-2.68432 z" />
      <path
         id="path11867"
         style="font-style:normal;font-variant:normal;font-weight:bold;font-stretch:normal;font-size:medium;line-height:125%;font-family:asap;-inkscape-font-specification:'asap Bold';letter-spacing:0px;word-spacing:0px;fill:#000000;fill-opacity:1;stroke:none;stroke-width:0.66443563px;stroke-linecap:butt;stroke-linejoin:miter;stroke-opacity:1"
         d="m 51.173783,274.517 c -1.727532,0 -3.189291,1.00994 -3.960036,2.01988 -0.159465,-0.66444 -0.212619,-1.72753 -1.063097,-1.72753 -0.664436,0 -2.976672,0.21262 -2.976672,0.85047 0,0.53155 0.318929,1.08968 0.318929,3.74742 v 8.42505 c 0,0.55812 0.478394,0.85047 1.594646,0.85047 h 0.744168 c 1.116252,0 1.594645,-0.29235 1.594645,-0.85047 v -8.53136 c 0.318929,-0.61128 1.03652,-1.54149 2.126194,-1.54149 1.169407,0 1.594646,0.61128 1.594646,1.6478 v 8.42505 c 0,0.55812 0.478393,0.85047 1.594645,0.85047 h 0.744168 c 1.116252,0 1.594646,-0.29235 1.594646,-0.85047 v -9.00975 c 0,-2.9501 -1.249139,-4.30554 -3.906882,-4.30554 z" />
      <path
         id="path11869"
         style="font-style:normal;font-variant:normal;font-weight:bold;font-stretch:normal;font-size:medium;line-height:125%;font-family:asap;-inkscape-font-specification:'asap Bold';letter-spacing:0px;word-spacing:0px;fill:#000000;fill-opacity:1;stroke:none;stroke-width:0.66443563px;stroke-linecap:butt;stroke-linejoin:miter;stroke-opacity:1"
         d="m 65.967858,274.517 c -1.727532,0 -3.189291,1.00994 -3.960036,2.01988 -0.159465,-0.66444 -0.212619,-1.72753 -1.063097,-1.72753 -0.664436,0 -2.976672,0.21262 -2.976672,0.85047 0,0.53155 0.318929,1.08968 0.318929,3.74742 v 8.42505 c 0,0.55812 0.478394,0.85047 1.594646,0.85047 h 0.744168 c 1.116252,0 1.594645,-0.29235 1.594645,-0.85047 v -8.53136 c 0.318929,-0.61128 1.03652,-1.54149 2.126194,-1.54149 1.169407,0 1.594646,0.61128 1.594646,1.6478 v 8.42505 c 0,0.55812 0.478393,0.85047 1.594645,0.85047 h 0.744168 c 1.116252,0 1.594646,-0.29235 1.594646,-0.85047 v -9.00975 c 0,-2.9501 -1.249139,-4.30554 -3.906882,-4.30554 z" />
      <path
         id="path11871"
         style="font-style:normal;font-variant:normal;font-weight:bold;font-stretch:normal;font-size:medium;line-height:125%;font-family:asap;-inkscape-font-specification:'asap Bold';letter-spacing:0px;word-spacing:0px;fill:#000000;fill-opacity:1;stroke:none;stroke-width:0.66443563px;stroke-linecap:butt;stroke-linejoin:miter;stroke-opacity:1"
         d="m 82.516043,274.67646 h -0.637858 c -0.770745,0 -1.355449,0.13289 -1.488336,0.55813 l -1.568068,4.91682 c -0.186042,0.5847 -0.504971,2.07304 -0.744168,3.21587 h -0.106309 c -0.239197,-1.14283 -0.558126,-2.60459 -0.744168,-3.21587 l -1.568068,-4.91682 c -0.132887,-0.42524 -0.717591,-0.55813 -1.488336,-0.55813 h -0.850478 c -1.116252,0 -1.621223,0.21262 -1.621223,0.5847 0,0.13289 0.05315,0.29236 0.10631,0.4784 l 4.385275,12.89005 -1.674378,4.43843 c -0.07973,0.18604 -0.106309,0.3455 -0.106309,0.47839 0,0.34551 0.504971,0.55813 1.594645,0.55813 h 0.451816 c 0.770746,0 1.328872,-0.13289 1.488336,-0.55813 l 6.086231,-17.80687 c 0.05315,-0.18604 0.07973,-0.34551 0.07973,-0.4784 0,-0.37208 -0.478394,-0.5847 -1.594646,-0.5847 z" />
      <path
         id="path11873"
         style="font-style:normal;font-variant:normal;font-weight:bold;font-stretch:normal;font-size:medium;line-height:125%;font-family:asap;-inkscape-font-specification:'asap Bold';letter-spacing:0px;word-spacing:0px;fill:#000000;fill-opacity:1;stroke:none;stroke-width:0.66443563px;stroke-linecap:butt;stroke-linejoin:miter;stroke-opacity:1"
         d="m 88.109761,268.59023 h -0.744168 c -1.116251,0 -1.594645,0.29235 -1.594645,0.85048 v 2.15277 c 0,0.55812 0.478394,0.85048 1.594645,0.85048 h 0.744168 c 1.116252,0 1.594646,-0.29236 1.594646,-0.85048 v -2.15277 c 0,-0.55813 -0.478394,-0.85048 -1.594646,-0.85048 z m 0,6.08623 h -0.744168 c -1.116251,0 -1.594645,0.29235 -1.594645,0.85048 v 12.30535 c 0,0.55812 0.478394,0.85047 1.594645,0.85047 h 0.744168 c 1.116252,0 1.594646,-0.29235 1.594646,-0.85047 v -12.30535 c 0,-0.55813 -0.478394,-0.85048 -1.594646,-0.85048 z" />
      <path
         id="path11875"
         style="font-style:normal;font-variant:normal;font-weight:bold;font-stretch:normal;font-size:medium;line-height:125%;font-family:asap;-inkscape-font-specification:'asap Bold';letter-spacing:0px;word-spacing:0px;fill:#000000;fill-opacity:1;stroke:none;stroke-width:0.66443563px;stroke-linecap:butt;stroke-linejoin:miter;stroke-opacity:1"
         d="m 97.109537,269.81279 c -2.073039,0 -4.996556,0.5847 -4.996556,2.15277 0,0.55813 0.93021,2.17935 1.674378,2.17935 0.372084,0 1.435181,-0.8239 2.976672,-0.8239 1.355448,0 1.966729,0.55813 1.966729,1.48834 0,0.87705 -1.195984,1.91357 -2.312236,3.21587 -0.93021,1.11625 -1.807265,2.39196 -1.807265,3.93345 0,0.55813 0.372084,0.77075 1.302294,0.77075 h 0.611281 c 0.877055,0 1.249139,-0.15946 1.408603,-0.71759 0.478394,-2.55143 4.943403,-3.40191 4.943403,-7.46826 0,-2.92351 -2.20593,-4.73078 -5.767303,-4.73078 z m -0.478394,14.72389 h -0.850477 c -1.116252,0 -1.594646,0.29236 -1.594646,0.85048 v 2.44513 c 0,0.55812 0.478394,0.85047 1.594646,0.85047 h 0.850477 c 1.116252,0 1.594646,-0.29235 1.594646,-0.85047 v -2.44513 c 0,-0.55812 -0.478394,-0.85048 -1.594646,-0.85048 z" />
    </g>
    <g
       transform="translate(0.03779763,-5.5631101)"
       id="g11254"
       style="display:inline">
      <path
         id="path4818"
         style="font-style:normal;font-variant:normal;font-weight:normal;font-stretch:normal;font-size:medium;line-height:125%;font-family:Asap;-inkscape-font-specification:Asap;letter-spacing:0px;word-spacing:0px;fill:#000000;fill-opacity:1;stroke:none;stroke-width:0.6654256px;stroke-linecap:butt;stroke-linejoin:miter;stroke-opacity:1"
         d="m 142.16055,12.713684 c -1.62363,0 -4.79107,0.825124 -4.79107,1.943033 0,0.399255 0.58557,1.330864 0.85175,1.330864 0.45248,0 1.57039,-1.357464 3.99256,-1.357464 2.04949,0 3.32711,1.064666 3.32711,2.768142 0,1.117923 -0.13304,1.650276 -1.80994,3.859493 l -6.86719,8.62391 c -0.08,0.07998 -0.10639,0.26617 -0.10639,0.452483 0,0.50574 0.21302,1.171151 0.53235,1.171151 h 10.1677 c 0.37264,0 0.53235,-0.239681 0.53235,-0.79851 v -0.292798 c 0,-0.558954 -0.15971,-0.79851 -0.53235,-0.79851 h -7.66571 l 1.94306,-2.368902 c 5.37663,-6.57442 6.09529,-7.452773 6.09529,-10.008016 0,-2.794785 -2.18258,-4.524876 -5.66942,-4.524876 z" />
      <path
         id="path4820"
         style="font-style:normal;font-variant:normal;font-weight:normal;font-stretch:normal;font-size:medium;line-height:125%;font-family:Asap;-inkscape-font-specification:Asap;letter-spacing:0px;word-spacing:0px;fill:#000000;fill-opacity:1;stroke:none;stroke-width:0.6654256px;stroke-linecap:butt;stroke-linejoin:miter;stroke-opacity:1"
         d="m 156.31063,17.60383 h -0.18636 c -0.55896,0 -0.79851,0.159699 -0.79851,0.532326 v 4.764459 h -4.76443 c -0.37265,0 -0.53235,0.346013 -0.53235,0.904967 v 0.186369 c 0,0.558954 0.1597,0.692025 0.53235,0.692025 h 4.76443 v 4.764446 c 0,0.372654 0.23942,0.532354 0.79851,0.532354 h 0.18636 c 0.55896,0 0.79851,-0.1597 0.79851,-0.532354 v -4.764446 h 4.73782 c 0.37265,0 0.53235,-0.23943 0.53235,-0.79851 v -0.186369 c 0,-0.558954 -0.1597,-0.79851 -0.53235,-0.79851 h -4.73782 v -4.764459 c 0,-0.372613 -0.23968,-0.532326 -0.79851,-0.532326 z" />
      <path
         id="path4822"
         style="font-style:normal;font-variant:normal;font-weight:normal;font-stretch:normal;font-size:medium;line-height:125%;font-family:Asap;-inkscape-font-specification:Asap;letter-spacing:0px;word-spacing:0px;fill:#000000;fill-opacity:1;stroke:none;stroke-width:0.6654256px;stroke-linecap:butt;stroke-linejoin:miter;stroke-opacity:1"
         d="m 169.05442,12.713684 c -1.62363,0 -4.79107,0.825124 -4.79107,1.943033 0,0.399255 0.5856,1.330864 0.85176,1.330864 0.4525,0 1.57041,-1.357464 3.99255,-1.357464 2.04952,0 3.32714,1.064666 3.32714,2.768142 0,1.117923 -0.13304,1.650276 -1.80996,3.859493 l -6.8672,8.62391 c -0.0797,0.07998 -0.10639,0.26617 -0.10639,0.452483 0,0.50574 0.21302,1.171151 0.53233,1.171151 h 10.16772 c 0.37262,0 0.53233,-0.239681 0.53233,-0.79851 v -0.292798 c 0,-0.558954 -0.15971,-0.79851 -0.53233,-0.79851 h -7.66571 l 1.94304,-2.368902 c 5.37663,-6.57442 6.09529,-7.452773 6.09529,-10.008016 0,-2.794785 -2.18258,-4.524876 -5.66943,-4.524876 z" />
      <path
         id="path4824"
         style="font-style:normal;font-variant:normal;font-weight:normal;font-stretch:normal;font-size:medium;line-height:125%;font-family:Asap;-inkscape-font-specification:Asap;letter-spacing:0px;word-spacing:0px;fill:#000000;fill-opacity:1;stroke:none;stroke-width:0.6654256px;stroke-linecap:butt;stroke-linejoin:miter;stroke-opacity:1"
         d="m 187.80449,20.93094 h -10.22412 c -0.50572,0 -0.79851,0.266198 -0.79851,0.79851 v 0.18637 c 0,0.505711 0.29279,0.79851 0.79851,0.79851 h 10.22412 c 0.53232,0 0.79851,-0.292799 0.79851,-0.79851 v -0.18637 c 0,-0.532312 -0.26619,-0.79851 -0.79851,-0.79851 z m 0,4.338605 h -10.22412 c -0.50572,0 -0.79851,0.266156 -0.79851,0.798496 v 0.213025 c 0,0.505739 0.29279,0.79851 0.79851,0.79851 h 10.22412 c 0.53232,0 0.79851,-0.292771 0.79851,-0.79851 v -0.213025 c 0,-0.53234 -0.26619,-0.798496 -0.79851,-0.798496 z" />
      <path
         id="path4826"
         style="font-style:normal;font-variant:normal;font-weight:normal;font-stretch:normal;font-size:medium;line-height:125%;font-family:Asap;-inkscape-font-specification:Asap;letter-spacing:0px;word-spacing:0px;fill:#000000;fill-opacity:1;stroke:none;stroke-width:0.6654256px;stroke-linecap:butt;stroke-linejoin:miter;stroke-opacity:1"
         d="m 201.04454,12.820141 h -0.42589 c -0.37262,0 -0.71866,0.133071 -0.90497,0.372655 l -8.75701,12.217205 c -0.0533,0.05337 -0.0533,0.159713 -0.0533,0.29277 0,0.505754 0.34602,1.357478 0.63881,1.357478 h 8.09157 v 3.912693 c 0,0.372655 0.23943,0.585596 0.79851,0.585596 h 0.6122 c 0.55896,0 0.79851,-0.213011 0.79851,-0.585596 v -3.912693 h 1.78333 c 0.37265,0 0.53236,-0.23943 0.53236,-0.79851 v -0.319412 c 0,-0.558954 -0.15971,-0.79851 -0.53236,-0.79851 h -1.78333 V 13.40571 c 0,-0.372613 -0.23943,-0.585569 -0.79851,-0.585569 z m -1.51717,3.80625 0.10639,0.05337 v 8.464225 h -6.09529 z" />
    </g>
    <g
       transform="matrix(0.81024873,0,0,0.81024873,104.66497,2.3885872)"
       id="QRcode-7"
       style="display:inline">
      <rect
         style="fill:#ffffff"
         x="0"
         y="0"
         width="37"
         height="37"
         id="rect22918" />
      <g
         id="Pattern-5">
        <rect
           style="fill:#000000"
           x="4"
           y="4"
           width="7"
           height="1"
           id="rect22920" />
        <rect
           style="fill:#000000"
           x="13"
           y="4"
           width="1"
           height="1"
           id="rect22922" />
        <rect
           style="fill:#000000"
           x="17"
           y="4"
           width="1"
           height="1"
           id="rect22924" />
        <rect
           style="fill:#000000"
           x="20"
           y="4"
           width="1"
           height="1"
           id="rect22926" />
        <rect
           style="fill:#000000"
           x="23"
           y="4"
           width="2"
           height="1"
           id="rect22928" />
        <rect
           style="fill:#000000"
           x="26"
           y="4"
           width="7"
           height="1"
           id="rect22930" />
        <rect
           style="fill:#000000"
           x="4"
           y="5"
           width="1"
           height="1"
           id="rect22932" />
        <rect
           style="fill:#000000"
           x="10"
           y="5"
           width="1"
           height="1"
           id="rect22934" />
        <rect
           style="fill:#000000"
           x="12"
           y="5"
           width="2"
           height="1"
           id="rect22936" />
        <rect
           style="fill:#000000"
           x="15"
           y="5"
           width="2"
           height="1"
           id="rect22938" />
        <rect
           style="fill:#000000"
           x="18"
           y="5"
           width="3"
           height="1"
           id="rect22940" />
        <rect
           style="fill:#000000"
           x="24"
           y="5"
           width="1"
           height="1"
           id="rect22942" />
        <rect
           style="fill:#000000"
           x="26"
           y="5"
           width="1"
           height="1"
           id="rect22944" />
        <rect
           style="fill:#000000"
           x="32"
           y="5"
           width="1"
           height="1"
           id="rect22946" />
        <rect
           style="fill:#000000"
           x="4"
           y="6"
           width="1"
           height="1"
           id="rect22948" />
        <rect
           style="fill:#000000"
           x="6"
           y="6"
           width="3"
           height="1"
           id="rect22950" />
        <rect
           style="fill:#000000"
           x="10"
           y="6"
           width="1"
           height="1"
           id="rect22952" />
        <rect
           style="fill:#000000"
           x="13"
           y="6"
           width="3"
           height="1"
           id="rect22954" />
        <rect
           style="fill:#000000"
           x="18"
           y="6"
           width="1"
           height="1"
           id="rect22956" />
        <rect
           style="fill:#000000"
           x="20"
           y="6"
           width="1"
           height="1"
           id="rect22958" />
        <rect
           style="fill:#000000"
           x="22"
           y="6"
           width="1"
           height="1"
           id="rect22960" />
        <rect
           style="fill:#000000"
           x="26"
           y="6"
           width="1"
           height="1"
           id="rect22962" />
        <rect
           style="fill:#000000"
           x="28"
           y="6"
           width="3"
           height="1"
           id="rect22964" />
        <rect
           style="fill:#000000"
           x="32"
           y="6"
           width="1"
           height="1"
           id="rect22966" />
        <rect
           style="fill:#000000"
           x="4"
           y="7"
           width="1"
           height="1"
           id="rect22968" />
        <rect
           style="fill:#000000"
           x="6"
           y="7"
           width="3"
           height="1"
           id="rect22970" />
        <rect
           style="fill:#000000"
           x="10"
           y="7"
           width="1"
           height="1"
           id="rect22972" />
        <rect
           style="fill:#000000"
           x="12"
           y="7"
           width="2"
           height="1"
           id="rect22974" />
        <rect
           style="fill:#000000"
           x="15"
           y="7"
           width="1"
           height="1"
           id="rect22976" />
        <rect
           style="fill:#000000"
           x="17"
           y="7"
           width="1"
           height="1"
           id="rect22978" />
        <rect
           style="fill:#000000"
           x="21"
           y="7"
           width="1"
           height="1"
           id="rect22980" />
        <rect
           style="fill:#000000"
           x="23"
           y="7"
           width="1"
           height="1"
           id="rect22982" />
        <rect
           style="fill:#000000"
           x="26"
           y="7"
           width="1"
           height="1"
           id="rect22984" />
        <rect
           style="fill:#000000"
           x="28"
           y="7"
           width="3"
           height="1"
           id="rect22986" />
        <rect
           style="fill:#000000"
           x="32"
           y="7"
           width="1"
           height="1"
           id="rect22988" />
        <rect
           style="fill:#000000"
           x="4"
           y="8"
           width="1"
           height="1"
           id="rect22990" />
        <rect
           style="fill:#000000"
           x="6"
           y="8"
           width="3"
           height="1"
           id="rect22992" />
        <rect
           style="fill:#000000"
           x="10"
           y="8"
           width="1"
           height="1"
           id="rect22994" />
        <rect
           style="fill:#000000"
           x="14"
           y="8"
           width="1"
           height="1"
           id="rect22996" />
        <rect
           style="fill:#000000"
           x="16"
           y="8"
           width="2"
           height="1"
           id="rect22998" />
        <rect
           style="fill:#000000"
           x="21"
           y="8"
           width="4"
           height="1"
           id="rect23000" />
        <rect
           style="fill:#000000"
           x="26"
           y="8"
           width="1"
           height="1"
           id="rect23002" />
        <rect
           style="fill:#000000"
           x="28"
           y="8"
           width="3"
           height="1"
           id="rect23004" />
        <rect
           style="fill:#000000"
           x="32"
           y="8"
           width="1"
           height="1"
           id="rect23006" />
        <rect
           style="fill:#000000"
           x="4"
           y="9"
           width="1"
           height="1"
           id="rect23008" />
        <rect
           style="fill:#000000"
           x="10"
           y="9"
           width="1"
           height="1"
           id="rect23010" />
        <rect
           style="fill:#000000"
           x="12"
           y="9"
           width="1"
           height="1"
           id="rect23012" />
        <rect
           style="fill:#000000"
           x="14"
           y="9"
           width="1"
           height="1"
           id="rect23014" />
        <rect
           style="fill:#000000"
           x="17"
           y="9"
           width="3"
           height="1"
           id="rect23016" />
        <rect
           style="fill:#000000"
           x="22"
           y="9"
           width="1"
           height="1"
           id="rect23018" />
        <rect
           style="fill:#000000"
           x="24"
           y="9"
           width="1"
           height="1"
           id="rect23020" />
        <rect
           style="fill:#000000"
           x="26"
           y="9"
           width="1"
           height="1"
           id="rect23022" />
        <rect
           style="fill:#000000"
           x="32"
           y="9"
           width="1"
           height="1"
           id="rect23024" />
        <rect
           style="fill:#000000"
           x="4"
           y="10"
           width="7"
           height="1"
           id="rect23026" />
        <rect
           style="fill:#000000"
           x="12"
           y="10"
           width="1"
           height="1"
           id="rect23028" />
        <rect
           style="fill:#000000"
           x="14"
           y="10"
           width="1"
           height="1"
           id="rect23030" />
        <rect
           style="fill:#000000"
           x="16"
           y="10"
           width="1"
           height="1"
           id="rect23032" />
        <rect
           style="fill:#000000"
           x="18"
           y="10"
           width="1"
           height="1"
           id="rect23034" />
        <rect
           style="fill:#000000"
           x="20"
           y="10"
           width="1"
           height="1"
           id="rect23036" />
        <rect
           style="fill:#000000"
           x="22"
           y="10"
           width="1"
           height="1"
           id="rect23038" />
        <rect
           style="fill:#000000"
           x="24"
           y="10"
           width="1"
           height="1"
           id="rect23040" />
        <rect
           style="fill:#000000"
           x="26"
           y="10"
           width="7"
           height="1"
           id="rect23042" />
        <rect
           style="fill:#000000"
           x="16"
           y="11"
           width="1"
           height="1"
           id="rect23044" />
        <rect
           style="fill:#000000"
           x="18"
           y="11"
           width="3"
           height="1"
           id="rect23046" />
        <rect
           style="fill:#000000"
           x="22"
           y="11"
           width="3"
           height="1"
           id="rect23048" />
        <rect
           style="fill:#000000"
           x="4"
           y="12"
           width="5"
           height="1"
           id="rect23050" />
        <rect
           style="fill:#000000"
           x="10"
           y="12"
           width="5"
           height="1"
           id="rect23052" />
        <rect
           style="fill:#000000"
           x="16"
           y="12"
           width="2"
           height="1"
           id="rect23054" />
        <rect
           style="fill:#000000"
           x="19"
           y="12"
           width="3"
           height="1"
           id="rect23056" />
        <rect
           style="fill:#000000"
           x="25"
           y="12"
           width="1"
           height="1"
           id="rect23058" />
        <rect
           style="fill:#000000"
           x="27"
           y="12"
           width="1"
           height="1"
           id="rect23060" />
        <rect
           style="fill:#000000"
           x="29"
           y="12"
           width="1"
           height="1"
           id="rect23062" />
        <rect
           style="fill:#000000"
           x="31"
           y="12"
           width="1"
           height="1"
           id="rect23064" />
        <rect
           style="fill:#000000"
           x="4"
           y="13"
           width="1"
           height="1"
           id="rect23066" />
        <rect
           style="fill:#000000"
           x="6"
           y="13"
           width="1"
           height="1"
           id="rect23068" />
        <rect
           style="fill:#000000"
           x="8"
           y="13"
           width="1"
           height="1"
           id="rect23070" />
        <rect
           style="fill:#000000"
           x="12"
           y="13"
           width="2"
           height="1"
           id="rect23072" />
        <rect
           style="fill:#000000"
           x="18"
           y="13"
           width="1"
           height="1"
           id="rect23074" />
        <rect
           style="fill:#000000"
           x="23"
           y="13"
           width="6"
           height="1"
           id="rect23076" />
        <rect
           style="fill:#000000"
           x="32"
           y="13"
           width="1"
           height="1"
           id="rect23078" />
        <rect
           style="fill:#000000"
           x="6"
           y="14"
           width="2"
           height="1"
           id="rect23080" />
        <rect
           style="fill:#000000"
           x="10"
           y="14"
           width="4"
           height="1"
           id="rect23082" />
        <rect
           style="fill:#000000"
           x="15"
           y="14"
           width="2"
           height="1"
           id="rect23084" />
        <rect
           style="fill:#000000"
           x="19"
           y="14"
           width="2"
           height="1"
           id="rect23086" />
        <rect
           style="fill:#000000"
           x="26"
           y="14"
           width="1"
           height="1"
           id="rect23088" />
        <rect
           style="fill:#000000"
           x="28"
           y="14"
           width="1"
           height="1"
           id="rect23090" />
        <rect
           style="fill:#000000"
           x="5"
           y="15"
           width="2"
           height="1"
           id="rect23092" />
        <rect
           style="fill:#000000"
           x="12"
           y="15"
           width="4"
           height="1"
           id="rect23094" />
        <rect
           style="fill:#000000"
           x="18"
           y="15"
           width="2"
           height="1"
           id="rect23096" />
        <rect
           style="fill:#000000"
           x="23"
           y="15"
           width="2"
           height="1"
           id="rect23098" />
        <rect
           style="fill:#000000"
           x="26"
           y="15"
           width="4"
           height="1"
           id="rect23100" />
        <rect
           style="fill:#000000"
           x="31"
           y="15"
           width="1"
           height="1"
           id="rect23102" />
        <rect
           style="fill:#000000"
           x="5"
           y="16"
           width="4"
           height="1"
           id="rect23104" />
        <rect
           style="fill:#000000"
           x="10"
           y="16"
           width="2"
           height="1"
           id="rect23106" />
        <rect
           style="fill:#000000"
           x="13"
           y="16"
           width="1"
           height="1"
           id="rect23108" />
        <rect
           style="fill:#000000"
           x="15"
           y="16"
           width="1"
           height="1"
           id="rect23110" />
        <rect
           style="fill:#000000"
           x="19"
           y="16"
           width="1"
           height="1"
           id="rect23112" />
        <rect
           style="fill:#000000"
           x="21"
           y="16"
           width="1"
           height="1"
           id="rect23114" />
        <rect
           style="fill:#000000"
           x="23"
           y="16"
           width="1"
           height="1"
           id="rect23116" />
        <rect
           style="fill:#000000"
           x="27"
           y="16"
           width="1"
           height="1"
           id="rect23118" />
        <rect
           style="fill:#000000"
           x="29"
           y="16"
           width="2"
           height="1"
           id="rect23120" />
        <rect
           style="fill:#000000"
           x="8"
           y="17"
           width="2"
           height="1"
           id="rect23122" />
        <rect
           style="fill:#000000"
           x="13"
           y="17"
           width="2"
           height="1"
           id="rect23124" />
        <rect
           style="fill:#000000"
           x="16"
           y="17"
           width="2"
           height="1"
           id="rect23126" />
        <rect
           style="fill:#000000"
           x="20"
           y="17"
           width="1"
           height="1"
           id="rect23128" />
        <rect
           style="fill:#000000"
           x="22"
           y="17"
           width="2"
           height="1"
           id="rect23130" />
        <rect
           style="fill:#000000"
           x="26"
           y="17"
           width="3"
           height="1"
           id="rect23132" />
        <rect
           style="fill:#000000"
           x="32"
           y="17"
           width="1"
           height="1"
           id="rect23134" />
        <rect
           style="fill:#000000"
           x="4"
           y="18"
           width="3"
           height="1"
           id="rect23136" />
        <rect
           style="fill:#000000"
           x="9"
           y="18"
           width="2"
           height="1"
           id="rect23138" />
        <rect
           style="fill:#000000"
           x="13"
           y="18"
           width="2"
           height="1"
           id="rect23140" />
        <rect
           style="fill:#000000"
           x="17"
           y="18"
           width="3"
           height="1"
           id="rect23142" />
        <rect
           style="fill:#000000"
           x="21"
           y="18"
           width="2"
           height="1"
           id="rect23144" />
        <rect
           style="fill:#000000"
           x="25"
           y="18"
           width="1"
           height="1"
           id="rect23146" />
        <rect
           style="fill:#000000"
           x="27"
           y="18"
           width="1"
           height="1"
           id="rect23148" />
        <rect
           style="fill:#000000"
           x="29"
           y="18"
           width="2"
           height="1"
           id="rect23150" />
        <rect
           style="fill:#000000"
           x="4"
           y="19"
           width="3"
           height="1"
           id="rect23152" />
        <rect
           style="fill:#000000"
           x="8"
           y="19"
           width="2"
           height="1"
           id="rect23154" />
        <rect
           style="fill:#000000"
           x="12"
           y="19"
           width="2"
           height="1"
           id="rect23156" />
        <rect
           style="fill:#000000"
           x="16"
           y="19"
           width="2"
           height="1"
           id="rect23158" />
        <rect
           style="fill:#000000"
           x="22"
           y="19"
           width="1"
           height="1"
           id="rect23160" />
        <rect
           style="fill:#000000"
           x="24"
           y="19"
           width="3"
           height="1"
           id="rect23162" />
        <rect
           style="fill:#000000"
           x="31"
           y="19"
           width="1"
           height="1"
           id="rect23164" />
        <rect
           style="fill:#000000"
           x="4"
           y="20"
           width="7"
           height="1"
           id="rect23166" />
        <rect
           style="fill:#000000"
           x="13"
           y="20"
           width="1"
           height="1"
           id="rect23168" />
        <rect
           style="fill:#000000"
           x="16"
           y="20"
           width="1"
           height="1"
           id="rect23170" />
        <rect
           style="fill:#000000"
           x="18"
           y="20"
           width="5"
           height="1"
           id="rect23172" />
        <rect
           style="fill:#000000"
           x="29"
           y="20"
           width="2"
           height="1"
           id="rect23174" />
        <rect
           style="fill:#000000"
           x="4"
           y="21"
           width="1"
           height="1"
           id="rect23176" />
        <rect
           style="fill:#000000"
           x="7"
           y="21"
           width="1"
           height="1"
           id="rect23178" />
        <rect
           style="fill:#000000"
           x="12"
           y="21"
           width="1"
           height="1"
           id="rect23180" />
        <rect
           style="fill:#000000"
           x="21"
           y="21"
           width="8"
           height="1"
           id="rect23182" />
        <rect
           style="fill:#000000"
           x="30"
           y="21"
           width="1"
           height="1"
           id="rect23184" />
        <rect
           style="fill:#000000"
           x="32"
           y="21"
           width="1"
           height="1"
           id="rect23186" />
        <rect
           style="fill:#000000"
           x="4"
           y="22"
           width="1"
           height="1"
           id="rect23188" />
        <rect
           style="fill:#000000"
           x="7"
           y="22"
           width="2"
           height="1"
           id="rect23190" />
        <rect
           style="fill:#000000"
           x="10"
           y="22"
           width="1"
           height="1"
           id="rect23192" />
        <rect
           style="fill:#000000"
           x="12"
           y="22"
           width="2"
           height="1"
           id="rect23194" />
        <rect
           style="fill:#000000"
           x="15"
           y="22"
           width="2"
           height="1"
           id="rect23196" />
        <rect
           style="fill:#000000"
           x="19"
           y="22"
           width="3"
           height="1"
           id="rect23198" />
        <rect
           style="fill:#000000"
           x="24"
           y="22"
           width="1"
           height="1"
           id="rect23200" />
        <rect
           style="fill:#000000"
           x="27"
           y="22"
           width="1"
           height="1"
           id="rect23202" />
        <rect
           style="fill:#000000"
           x="30"
           y="22"
           width="1"
           height="1"
           id="rect23204" />
        <rect
           style="fill:#000000"
           x="4"
           y="23"
           width="1"
           height="1"
           id="rect23206" />
        <rect
           style="fill:#000000"
           x="6"
           y="23"
           width="3"
           height="1"
           id="rect23208" />
        <rect
           style="fill:#000000"
           x="11"
           y="23"
           width="1"
           height="1"
           id="rect23210" />
        <rect
           style="fill:#000000"
           x="13"
           y="23"
           width="3"
           height="1"
           id="rect23212" />
        <rect
           style="fill:#000000"
           x="18"
           y="23"
           width="3"
           height="1"
           id="rect23214" />
        <rect
           style="fill:#000000"
           x="22"
           y="23"
           width="1"
           height="1"
           id="rect23216" />
        <rect
           style="fill:#000000"
           x="25"
           y="23"
           width="1"
           height="1"
           id="rect23218" />
        <rect
           style="fill:#000000"
           x="27"
           y="23"
           width="1"
           height="1"
           id="rect23220" />
        <rect
           style="fill:#000000"
           x="31"
           y="23"
           width="1"
           height="1"
           id="rect23222" />
        <rect
           style="fill:#000000"
           x="4"
           y="24"
           width="1"
           height="1"
           id="rect23224" />
        <rect
           style="fill:#000000"
           x="6"
           y="24"
           width="1"
           height="1"
           id="rect23226" />
        <rect
           style="fill:#000000"
           x="9"
           y="24"
           width="5"
           height="1"
           id="rect23228" />
        <rect
           style="fill:#000000"
           x="15"
           y="24"
           width="1"
           height="1"
           id="rect23230" />
        <rect
           style="fill:#000000"
           x="21"
           y="24"
           width="1"
           height="1"
           id="rect23232" />
        <rect
           style="fill:#000000"
           x="23"
           y="24"
           width="6"
           height="1"
           id="rect23234" />
        <rect
           style="fill:#000000"
           x="30"
           y="24"
           width="3"
           height="1"
           id="rect23236" />
        <rect
           style="fill:#000000"
           x="12"
           y="25"
           width="3"
           height="1"
           id="rect23238" />
        <rect
           style="fill:#000000"
           x="16"
           y="25"
           width="3"
           height="1"
           id="rect23240" />
        <rect
           style="fill:#000000"
           x="20"
           y="25"
           width="3"
           height="1"
           id="rect23242" />
        <rect
           style="fill:#000000"
           x="24"
           y="25"
           width="1"
           height="1"
           id="rect23244" />
        <rect
           style="fill:#000000"
           x="28"
           y="25"
           width="5"
           height="1"
           id="rect23246" />
        <rect
           style="fill:#000000"
           x="4"
           y="26"
           width="7"
           height="1"
           id="rect23248" />
        <rect
           style="fill:#000000"
           x="12"
           y="26"
           width="3"
           height="1"
           id="rect23250" />
        <rect
           style="fill:#000000"
           x="17"
           y="26"
           width="3"
           height="1"
           id="rect23252" />
        <rect
           style="fill:#000000"
           x="22"
           y="26"
           width="3"
           height="1"
           id="rect23254" />
        <rect
           style="fill:#000000"
           x="26"
           y="26"
           width="1"
           height="1"
           id="rect23256" />
        <rect
           style="fill:#000000"
           x="28"
           y="26"
           width="3"
           height="1"
           id="rect23258" />
        <rect
           style="fill:#000000"
           x="4"
           y="27"
           width="1"
           height="1"
           id="rect23260" />
        <rect
           style="fill:#000000"
           x="10"
           y="27"
           width="1"
           height="1"
           id="rect23262" />
        <rect
           style="fill:#000000"
           x="14"
           y="27"
           width="1"
           height="1"
           id="rect23264" />
        <rect
           style="fill:#000000"
           x="16"
           y="27"
           width="2"
           height="1"
           id="rect23266" />
        <rect
           style="fill:#000000"
           x="23"
           y="27"
           width="2"
           height="1"
           id="rect23268" />
        <rect
           style="fill:#000000"
           x="28"
           y="27"
           width="1"
           height="1"
           id="rect23270" />
        <rect
           style="fill:#000000"
           x="32"
           y="27"
           width="1"
           height="1"
           id="rect23272" />
        <rect
           style="fill:#000000"
           x="4"
           y="28"
           width="1"
           height="1"
           id="rect23274" />
        <rect
           style="fill:#000000"
           x="6"
           y="28"
           width="3"
           height="1"
           id="rect23276" />
        <rect
           style="fill:#000000"
           x="10"
           y="28"
           width="1"
           height="1"
           id="rect23278" />
        <rect
           style="fill:#000000"
           x="12"
           y="28"
           width="1"
           height="1"
           id="rect23280" />
        <rect
           style="fill:#000000"
           x="14"
           y="28"
           width="1"
           height="1"
           id="rect23282" />
        <rect
           style="fill:#000000"
           x="16"
           y="28"
           width="1"
           height="1"
           id="rect23284" />
        <rect
           style="fill:#000000"
           x="18"
           y="28"
           width="4"
           height="1"
           id="rect23286" />
        <rect
           style="fill:#000000"
           x="24"
           y="28"
           width="5"
           height="1"
           id="rect23288" />
        <rect
           style="fill:#000000"
           x="30"
           y="28"
           width="1"
           height="1"
           id="rect23290" />
        <rect
           style="fill:#000000"
           x="4"
           y="29"
           width="1"
           height="1"
           id="rect23292" />
        <rect
           style="fill:#000000"
           x="6"
           y="29"
           width="3"
           height="1"
           id="rect23294" />
        <rect
           style="fill:#000000"
           x="10"
           y="29"
           width="1"
           height="1"
           id="rect23296" />
        <rect
           style="fill:#000000"
           x="12"
           y="29"
           width="3"
           height="1"
           id="rect23298" />
        <rect
           style="fill:#000000"
           x="21"
           y="29"
           width="4"
           height="1"
           id="rect23300" />
        <rect
           style="fill:#000000"
           x="29"
           y="29"
           width="4"
           height="1"
           id="rect23302" />
        <rect
           style="fill:#000000"
           x="4"
           y="30"
           width="1"
           height="1"
           id="rect23304" />
        <rect
           style="fill:#000000"
           x="6"
           y="30"
           width="3"
           height="1"
           id="rect23306" />
        <rect
           style="fill:#000000"
           x="10"
           y="30"
           width="1"
           height="1"
           id="rect23308" />
        <rect
           style="fill:#000000"
           x="12"
           y="30"
           width="2"
           height="1"
           id="rect23310" />
        <rect
           style="fill:#000000"
           x="15"
           y="30"
           width="2"
           height="1"
           id="rect23312" />
        <rect
           style="fill:#000000"
           x="19"
           y="30"
           width="3"
           height="1"
           id="rect23314" />
        <rect
           style="fill:#000000"
           x="23"
           y="30"
           width="2"
           height="1"
           id="rect23316" />
        <rect
           style="fill:#000000"
           x="26"
           y="30"
           width="6"
           height="1"
           id="rect23318" />
        <rect
           style="fill:#000000"
           x="4"
           y="31"
           width="1"
           height="1"
           id="rect23320" />
        <rect
           style="fill:#000000"
           x="10"
           y="31"
           width="1"
           height="1"
           id="rect23322" />
        <rect
           style="fill:#000000"
           x="12"
           y="31"
           width="2"
           height="1"
           id="rect23324" />
        <rect
           style="fill:#000000"
           x="15"
           y="31"
           width="1"
           height="1"
           id="rect23326" />
        <rect
           style="fill:#000000"
           x="18"
           y="31"
           width="1"
           height="1"
           id="rect23328" />
        <rect
           style="fill:#000000"
           x="20"
           y="31"
           width="1"
           height="1"
           id="rect23330" />
        <rect
           style="fill:#000000"
           x="24"
           y="31"
           width="2"
           height="1"
           id="rect23332" />
        <rect
           style="fill:#000000"
           x="28"
           y="31"
           width="2"
           height="1"
           id="rect23334" />
        <rect
           style="fill:#000000"
           x="31"
           y="31"
           width="1"
           height="1"
           id="rect23336" />
        <rect
           style="fill:#000000"
           x="4"
           y="32"
           width="7"
           height="1"
           id="rect23338" />
        <rect
           style="fill:#000000"
           x="12"
           y="32"
           width="1"
           height="1"
           id="rect23340" />
        <rect
           style="fill:#000000"
           x="14"
           y="32"
           width="2"
           height="1"
           id="rect23342" />
        <rect
           style="fill:#000000"
           x="21"
           y="32"
           width="3"
           height="1"
           id="rect23344" />
        <rect
           style="fill:#000000"
           x="25"
           y="32"
           width="4"
           height="1"
           id="rect23346" />
        <rect
           style="fill:#000000"
           x="30"
           y="32"
           width="1"
           height="1"
           id="rect23348" />
      </g>
    </g>
  </g>
</svg>
