<?xml version="1.0" encoding="utf-8"?>
<!DOCTYPE svg PUBLIC "-//W3C//DTD SVG 1.1//EN" "http://www.w3.org/Graphics/SVG/1.1/DTD/svg11.dtd">
<svg version="1.1" xmlns="http://www.w3.org/2000/svg" xmlns:xlink="http://www.w3.org/1999/xlink" x="0px" y="0px" viewBox="0 0 1000 1000" enable-background="new 0 0 1000 1000" xml:space="preserve">
<metadata> Svg Vector Icons : http://www.onlinewebfonts.com/icon </metadata>
<g style="fill:#707070"><path d="M64.6,309.4h190.5c40.1,0,75.9,21.3,100.8,54.5c17.7-32.9,39.7-63.3,64.8-90.5c-43.7-44.8-101.6-72.9-165.6-72.9H64.6c-30.1,0-54.5,24.4-54.5,54.5S34.5,309.4,64.6,309.4z"/><path d="M483,478.8c30-90.2,122.8-169.4,198.7-169.4h100l-70.4,70.4c-21.3,21.3-21.3,55.7,0,77c10.6,10.6,24.6,15.9,38.5,15.9s27.8-5.3,38.5-15.9L990,255L788.2,53.2c-21.3-21.3-55.7-21.3-77,0c-21.3,21.3-21.3,55.7,0,77l70.4,70.4h-100c-123.8,0-256.5,107.1-302,243.8l-25.7,76.8C319,626.2,241.1,690.6,200.6,690.6H64.5C34.3,690.6,10,715,10,745.1c0,30.1,24.3,54.5,54.5,54.5h136.1c100,0,210.3-104.8,256.6-243.8l25.7-76.8L483,478.8z"/><path d="M711.3,543.1c-21.3,21.3-21.3,55.7,0,77l70.4,70.4H654.4c-69,0-126.8-48.5-146.5-114.7c-14,40.8-34.1,81.6-59.4,119c48.3,63.3,122.1,104.7,205.9,104.7h127.3l-70.4,70.4c-21.3,21.3-21.3,55.7,0,77c10.6,10.6,24.6,15.9,38.5,15.9s27.8-5.3,38.5-15.9L990,745.1L788.2,543.3c-21.3-21.3-55.7-21.3-77,0L711.3,543.1z"/></g>
</svg>
